<?xml version="1.0" standalone="no"?>
<!DOCTYPE svg PUBLIC "-//W3C//DTD SVG 1.1//EN" "http://www.w3.org/Graphics/SVG/1.1/DTD/svg11.dtd" >
<svg xmlns="http://www.w3.org/2000/svg" width="100%" height="100%">
<metadata>
Created by FontForge 20090622 at Thu Apr 18 15:38:34 2013
 By fontface
Copyright &#194;&#169; 1990, 2002 Adobe Systems Incorporated. All Rights Reserved.  &#194;&#169; Copyright 1989, 1990, 2002 The Monotype Corporation Plc. All Rights Reserved.
</metadata>
<defs>
<font id="RockwellStd" horiz-adv-x="598" >
  <font-face 
    font-family="Rockwell Std"
    font-weight="400"
    font-stretch="normal"
    units-per-em="2048"
    panose-1="2 6 6 3 3 4 5 2 1 3"
    ascent="1391"
    descent="-657"
    x-height="967"
    cap-height="1391"
    bbox="-303 -457 2159 1878"
    underline-thickness="102"
    underline-position="-102"
    unicode-range="U+0020-U+FB02"
  />
<missing-glyph horiz-adv-x="1024" 
d="M0 0v1434h1024v-1434h-1024zM512 809l348 522h-696zM573 717l349 -522v1044zM164 102h696l-348 523zM102 1239v-1044l349 522z" />
    <glyph glyph-name="f_i" unicode="fi" horiz-adv-x="1173" 
d="M799 799h-391v-631h153v-168h-500v168h154v631h-154v168h154v174q0 137 73.5 207.5t184.5 70.5q103 0 168 -58t82 -165l-168 -27q-9 95 -74 95q-35 0 -54 -27.5t-19 -77.5v-192h583v-799h154v-168h-500v168h154v631zM897 1411q47 0 81 -34t34 -81t-34 -80.5t-81 -33.5
t-81 33.5t-34 80.5t34 81t81 34z" />
    <glyph glyph-name="f_l" unicode="fl" horiz-adv-x="1173" 
d="M408 967h163v-168h-163v-631h153v-168h-500v168h154v631h-154v168h154v174q0 137 74 207.5t184 70.5q81 0 121 -28h397v-1223h154v-168h-500v168h154v1055l-242 -23q-9 33 -26.5 48.5t-49.5 15.5q-35 0 -54 -27.5t-19 -77.5v-192z" />
    <glyph glyph-name=".notdef" horiz-adv-x="1024" 
d="M0 0v1434h1024v-1434h-1024zM512 809l348 522h-696zM573 717l349 -522v1044zM164 102h696l-348 523zM102 1239v-1044l349 522z" />
    <glyph glyph-name=".null" horiz-adv-x="0" 
 />
    <glyph glyph-name="nonmarkingreturn" horiz-adv-x="682" 
 />
    <glyph glyph-name="space" unicode=" " horiz-adv-x="512" 
 />
    <glyph glyph-name="exclam" unicode="!" 
d="M248 377l-49 590v424h200v-424l-49 -590h-102zM176 0v246h246v-246h-246z" />
    <glyph glyph-name="quotedbl" unicode="&#x22;" horiz-adv-x="831" 
d="M156 868l-29 283v240h164v-240l-29 -283h-106zM569 868l-28 283v240h164v-240l-29 -283h-107z" />
    <glyph glyph-name="numbersign" unicode="#" horiz-adv-x="1368" 
d="M86 1014h320l81 399h148l-82 -399h397l82 399h148l-82 -399h184v-140h-217l-70 -352h287v-139h-317l-84 -399h-146l82 399h-397l-84 -399h-146l82 399h-186v139h217l72 352h-289v140zM520 874l-71 -352h399l72 352h-400z" />
    <glyph glyph-name="dollar" unicode="$" horiz-adv-x="1110" 
d="M469 -176v156q-85 5 -158 34t-130.5 81.5t-89.5 135.5t-30 189h183q9 -129 62 -194.5t163 -84.5v461q-192 38 -286.5 133t-94.5 252q0 169 100 272.5t281 120.5v84h152v-84q171 -18 261.5 -129t73.5 -311h-174q0 126 -36 190t-125 84v-444q99 -19 169 -45.5t124.5 -70
t81 -108.5t26.5 -153q0 -178 -104.5 -285.5t-296.5 -127.5v-156h-152zM469 803v420q-85 -15 -131.5 -69t-46.5 -138t41 -133t137 -80zM621 569v-426q215 40 215 224q0 87 -48 132t-167 70z" />
    <glyph glyph-name="percent" unicode="%" horiz-adv-x="1984" 
d="M1264 330q0 166 78.5 264t211.5 98q132 0 211.5 -98.5t79.5 -263.5q0 -164 -79.5 -262.5t-211.5 -98.5q-133 0 -211.5 98t-78.5 263zM1425 330q0 -120 31.5 -178t97.5 -58q129 0 129 236q0 235 -129 235q-66 0 -97.5 -57.5t-31.5 -177.5zM139 1049q0 166 79 264t212 98
q132 0 211.5 -98.5t79.5 -263.5q0 -164 -79.5 -262.5t-211.5 -98.5q-133 0 -212 98t-79 263zM301 1049q0 -120 31.5 -178t97.5 -58q129 0 129 236q0 235 -129 235q-66 0 -97.5 -57.5t-31.5 -177.5zM369 0l1104 1391h141l-1096 -1391h-149z" />
    <glyph glyph-name="ampersand" unicode="&#x26;" horiz-adv-x="1386" 
d="M1055 735h284v-170h-147q-51 -187 -137 -297l73 -94h211v-174h-317l-92 123q-185 -146 -369 -146q-214 0 -356 134t-142 335q0 276 316 418q-94 125 -94 242q0 129 98 218t240 89q140 0 235.5 -85.5t95.5 -211.5q0 -105 -67 -182t-223 -135l282 -383q80 140 109 319z
M823 262l-338 473q-209 -95 -209 -278q0 -125 91 -215t217 -90q132 0 239 110zM563 930q113 50 158 91.5t45 98.5q0 60 -39 92.5t-102 32.5q-66 0 -106 -35t-40 -98q0 -58 84 -182z" />
    <glyph glyph-name="quotesingle" unicode="'" horiz-adv-x="362" 
d="M129 868l-29 283v240h164v-240l-28 -283h-107z" />
    <glyph glyph-name="parenleft" unicode="(" horiz-adv-x="768" 
d="M369 485q0 -164 20.5 -286t65.5 -212.5t105.5 -154.5t150.5 -123v-155q-167 80 -286.5 206.5t-189 312t-69.5 412.5t69.5 412.5t189 312.5t286.5 207v-155q-90 -59 -150.5 -123t-105.5 -155t-65.5 -213t-20.5 -286z" />
    <glyph glyph-name="parenright" unicode=")" horiz-adv-x="768" 
d="M399 485q0 164 -20.5 286t-65.5 213t-105.5 155t-150.5 123v155q167 -80 286.5 -207t189 -312.5t69.5 -412.5t-69.5 -412.5t-189 -312t-286.5 -206.5v155q90 59 150.5 123t105.5 154.5t65.5 212.5t20.5 286z" />
    <glyph glyph-name="asterisk" unicode="*" horiz-adv-x="1067" 
d="M231 954l-161 56l53 176l168 -53q68 -83 215 -136q-4 65 -22.5 133t-41.5 113v170h181v-170q-23 -45 -41.5 -113t-22.5 -133q147 53 215 136l168 53l53 -176l-161 -56q-90 21 -246 -16q110 -130 186 -158l103 -141l-150 -107l-104 142q-3 48 -30 119t-61 112
q-34 -41 -60.5 -112t-29.5 -119l-104 -142l-150 107l103 141q76 28 186 158q-156 37 -246 16z" />
    <glyph glyph-name="plus" unicode="+" horiz-adv-x="1366" 
d="M604 590h-469v158h469v469h158v-469h469v-158h-469v-469h-158v469z" />
    <glyph glyph-name="comma" unicode="," 
d="M176 0v246h246v-246q0 -138 -57 -206.5t-189 -69.5v102q67 15 95 53t28 121h-123z" />
    <glyph glyph-name="hyphen" unicode="-" horiz-adv-x="724" 
d="M63 563h601v-168h-601v168z" />
    <glyph glyph-name="period" unicode="." 
d="M176 0v246h246v-246h-246z" />
    <glyph glyph-name="slash" unicode="/" horiz-adv-x="897" 
d="M721 1391h166l-711 -1420h-166z" />
    <glyph glyph-name="zero" unicode="0" horiz-adv-x="1110" 
d="M72 696q0 339 127 528t356 189q227 0 354 -189.5t127 -527.5q0 -340 -127 -529.5t-354 -189.5q-229 0 -356 189.5t-127 529.5zM553 1251q-283 0 -283 -555q0 -276 68.5 -416.5t214.5 -140.5q138 0 211.5 130.5t73.5 426.5q0 294 -72.5 424.5t-212.5 130.5z" />
    <glyph glyph-name="one" unicode="1" horiz-adv-x="1110" 
d="M485 168v1055h-190v168h383v-1223h178v-168h-561v168h190z" />
    <glyph glyph-name="two" unicode="2" horiz-adv-x="1110" 
d="M983 498l-12 -498h-889q0 314 229 543q56 56 129 112l125.5 93.5t101 80.5t74 93t25.5 110q0 99 -61.5 159t-163.5 60q-140 0 -190 -85.5t-50 -293.5h-184q-11 137 17 243t87.5 170t139.5 96t178 32q93 0 168.5 -23.5t123.5 -61.5t80.5 -88.5t46 -101t13.5 -102.5
q0 -161 -127 -288q-48 -48 -123.5 -104l-141 -102t-129.5 -100.5t-108.5 -121.5t-58.5 -142h522l10 320h168z" />
    <glyph glyph-name="three" unicode="3" horiz-adv-x="1110" 
d="M416 641v172h84q132 0 201 50t69 161q0 103 -59.5 165t-157.5 62q-117 0 -174 -73.5t-57 -206.5h-193q-9 203 101 322.5t302 119.5q194 0 310 -94t116 -270q0 -104 -53.5 -190t-142.5 -126q260 -81 260 -336q0 -191 -131.5 -305.5t-349.5 -114.5q-104 0 -190 29
t-151.5 87.5t-101 155t-32.5 222.5h182q6 -158 86 -245t221 -87q120 0 194 68t74 178q0 120 -90 188t-229 68h-88z" />
    <glyph glyph-name="four" unicode="4" horiz-adv-x="1110" 
d="M614 373h-464q-23 89 -91 157l578 873h162v-862h223v-168h-223v-205h127v-168h-457v168h145v205zM614 541v549h-4l-358 -549h362z" />
    <glyph glyph-name="five" unicode="5" horiz-adv-x="1110" 
d="M72 444h180q19 -146 94.5 -225.5t196.5 -79.5q124 0 201 84t77 221q0 133 -70.5 213t-187.5 80q-165 0 -280 -166q-61 61 -146 103l60 717h741v-371h-172v192h-426l-31 -409q57 49 133 78q70 24 150 24q190 0 309 -127.5t119 -331.5q0 -98 -30 -181.5t-87.5 -148.5
t-150 -102t-209.5 -37q-214 0 -335 120t-136 347z" />
    <glyph glyph-name="six" unicode="6" horiz-adv-x="1110" 
d="M987 981h-170q-17 125 -84.5 197.5t-165.5 72.5q-73 0 -129 -42.5t-88.5 -116.5t-48.5 -165t-16 -196q66 74 151.5 115t173.5 41q169 0 278 -122.5t109 -311.5q0 -210 -116.5 -343t-300.5 -133q-226 0 -353 188.5t-127 522.5q0 342 129.5 533.5t360.5 191.5
q177 0 284 -116.5t113 -315.5zM293 522q23 -194 90.5 -285.5t185.5 -91.5q110 0 180 82t70 211q0 120 -62.5 192t-168.5 72q-77 0 -148 -43t-147 -137z" />
    <glyph glyph-name="seven" unicode="7" horiz-adv-x="1110" 
d="M223 0v168h185q15 260 112.5 535t249.5 509h-477v-188h-172v367h868v-136q-156 -217 -267.5 -527.5t-111.5 -559.5h162v-168h-549z" />
    <glyph glyph-name="eight" unicode="8" horiz-adv-x="1110" 
d="M315 727q-204 120 -204 322q0 164 120 264t318 100q206 0 327 -98.5t121 -265.5q0 -201 -202 -322q121 -47 183 -134.5t62 -209.5q0 -186 -129 -296t-346 -110q-128 0 -226 32.5t-156 89.5t-86.5 128.5t-28.5 155.5q0 122 63 209.5t184 134.5zM555 805q118 0 186 60.5
t68 164.5t-67 160.5t-193 56.5q-117 0 -183.5 -58t-66.5 -161t69 -163t187 -60zM555 139q126 0 203.5 69.5t77.5 182.5q0 117 -77.5 184.5t-211.5 67.5q-123 0 -199 -69t-76 -183t78.5 -183t204.5 -69z" />
    <glyph glyph-name="nine" unicode="9" horiz-adv-x="1110" 
d="M104 412h170q17 -125 84.5 -199t165.5 -74q57 0 106 29t89.5 88.5t64 163.5t23.5 242q-66 -74 -152 -115t-174 -41q-167 0 -277 122.5t-110 309.5q0 209 117.5 342t302.5 133q226 0 351.5 -186.5t125.5 -521.5q0 -343 -129.5 -535.5t-359.5 -192.5q-177 0 -284.5 117.5
t-113.5 317.5zM799 870q-23 192 -90.5 283.5t-186.5 91.5q-110 0 -180 -82t-70 -211q0 -118 64 -190t168 -72q77 0 148 43t147 137z" />
    <glyph glyph-name="colon" unicode=":" 
d="M176 721v246h246v-246h-246zM176 0v246h246v-246h-246z" />
    <glyph glyph-name="semicolon" unicode=";" 
d="M176 0v246h246v-246q0 -138 -57 -206.5t-189 -69.5v102q67 15 95 53t28 121h-123zM176 721v246h246v-246h-246z" />
    <glyph glyph-name="less" unicode="&#x3c;" horiz-adv-x="1366" 
d="M348 668l883 -361v-170l-1096 459v143l1096 461v-172z" />
    <glyph glyph-name="equal" unicode="=" horiz-adv-x="1366" 
d="M135 985h1096v-158h-1096v158zM135 512h1096v-158h-1096v158z" />
    <glyph glyph-name="greater" unicode="&#x3e;" horiz-adv-x="1366" 
d="M1018 668l-883 360v170l1096 -459v-143l-1096 -459v170z" />
    <glyph glyph-name="question" unicode="?" horiz-adv-x="960" 
d="M481 375h-102l-25 434l15 6q87 -15 159 0.5t120 70.5t48 144q0 101 -60 161t-161 60q-117 0 -176.5 -72t-50.5 -212h-189q-9 100 14 180t65.5 128.5t101 80.5t115 44.5t114.5 12.5q196 0 310 -105.5t114 -287.5q0 -72 -23.5 -138.5t-69 -121.5t-122 -86.5t-172.5 -28.5z
M305 0v246h246v-246h-246z" />
    <glyph glyph-name="at" unicode="@" horiz-adv-x="2068" 
d="M1825 18h186q-143 -218 -356.5 -333t-532.5 -115q-202 0 -369 45t-285 125.5t-199 193t-119.5 247t-38.5 288.5q0 91 15.5 185.5t51 196t88.5 193.5t133.5 175.5t180 144t233.5 96t289 35.5q193 0 356 -63.5t270.5 -171t167.5 -249t60 -298.5q0 -130 -48.5 -260
t-129 -230.5t-193.5 -163.5t-233 -63q-91 0 -141 41t-50 125q-68 -78 -147.5 -121t-157.5 -43q-155 0 -259.5 128t-104.5 320q0 159 74.5 307t195.5 239t250 91q92 0 169.5 -47.5t131.5 -136.5l35 156h180l-174 -805q-7 -35 14.5 -60.5t52.5 -25.5q29 0 75 21t100.5 67.5
t101.5 109t78.5 156.5t31.5 199q0 178 -92.5 322t-256 225.5t-365.5 81.5q-178 0 -333 -65.5t-265.5 -179t-174 -274t-63.5 -344.5q0 -173 54.5 -313.5t160.5 -241.5t270.5 -156t376.5 -55q236 0 417.5 77.5t287.5 223.5zM680 430q0 -122 61.5 -203.5t153.5 -81.5
q90 0 174 71.5t135 189t51 243.5q0 129 -63 208t-166 79q-68 0 -127.5 -37.5t-98.5 -94.5t-67 -126.5t-40.5 -133t-12.5 -114.5z" />
    <glyph glyph-name="A" unicode="A" horiz-adv-x="1429" 
d="M971 489h-500l-109 -315h170v-174h-548v174h168l380 1061h-163v156h710v-156h-164l375 -1061h156v-174h-545v174h172zM918 651l-185 584h-18l-193 -584h396z" />
    <glyph glyph-name="B" unicode="B" horiz-adv-x="1193" 
d="M217 174v1043h-170v174h563q111 0 196 -30.5t133.5 -82t72.5 -114t24 -132.5q0 -101 -45 -178t-127 -117q115 -40 178.5 -129.5t63.5 -212.5q0 -53 -12 -103t-47 -104.5t-90 -95t-149 -66.5t-216 -26h-545v174h170zM426 811h156q241 0 241 207q0 103 -64 151t-202 48
h-131v-406zM426 174h164q158 0 229.5 59t71.5 177q0 227 -297 227h-168v-463z" />
    <glyph glyph-name="C" unicode="C" horiz-adv-x="1556" 
d="M1276 565l182 -100q-61 -227 -241.5 -357.5t-432.5 -130.5q-203 0 -362 91t-246.5 254t-87.5 372q0 324 189.5 521.5t502.5 197.5q271 0 459 -149v127h180v-447h-180q-60 132 -180 208.5t-268 76.5q-207 0 -340.5 -149.5t-133.5 -379.5q0 -227 138.5 -380.5t343.5 -153.5
q72 0 144.5 24.5t138 71.5t117.5 125.5t77 177.5z" />
    <glyph glyph-name="D" unicode="D" horiz-adv-x="1492" 
d="M215 1217h-188v174h653q156 0 280 -39.5t203 -104t131 -154.5t73.5 -184.5t21.5 -199.5q0 -344 -179.5 -526.5t-547.5 -182.5h-635v174h188v1043zM424 1217v-1043h246q113 0 200.5 27t144.5 74t93.5 115t52 144.5t15.5 167.5q0 114 -29 206t-88.5 162t-157 108.5
t-227.5 38.5h-250z" />
    <glyph glyph-name="E" unicode="E" horiz-adv-x="1280" 
d="M238 174v1043h-181v174h1153v-418h-172v244h-592v-414h517v-174h-517v-455h592v254h172v-428h-1153v174h181z" />
    <glyph glyph-name="F" unicode="F" horiz-adv-x="1130" 
d="M213 174v1043h-176v174h1079v-418h-172v244h-522v-412h450v-174h-450v-457h180v-174h-565v174h176z" />
    <glyph glyph-name="G" unicode="G" horiz-adv-x="1642" 
d="M1034 672h508q3 -148 -34.5 -267t-104 -198t-159.5 -132.5t-194.5 -76.5t-213.5 -23q-123 0 -227 26t-178.5 70t-134 104t-96 125t-61 137.5t-34 136.5t-9.5 126q0 101 23.5 199t78 192t134 164.5t200 114t267.5 43.5q149 0 263.5 -41.5t223.5 -134.5v154h178v-457h-178
q-60 133 -188.5 214t-280.5 81q-218 0 -354.5 -148t-136.5 -383q0 -233 144.5 -384.5t367.5 -151.5q173 0 298 94t150 242h-252v174z" />
    <glyph glyph-name="H" unicode="H" horiz-adv-x="1449" 
d="M213 174v1043h-158v174h531v-174h-164v-398h608v398h-164v174h531v-174h-158v-1043h158v-174h-531v174h164v471h-608v-471h164v-174h-531v174h158z" />
    <glyph glyph-name="I" unicode="I" horiz-adv-x="641" 
d="M215 174v1043h-152v174h512v-174h-151v-1043h151v-174h-512v174h152z" />
    <glyph glyph-name="J" unicode="J" horiz-adv-x="641" 
d="M-72 -414v195q84 -19 152 -19q76 0 111.5 43.5t35.5 133.5v1278h-178v174h565v-174h-178v-1319q0 -78 -24 -139t-60 -96.5t-84 -59t-91.5 -31.5t-86.5 -8q-85 0 -162 22z" />
    <glyph glyph-name="K" unicode="K" horiz-adv-x="1280" 
d="M211 174v1043h-174v174h563v-174h-180v-1043h160v-174h-543v174h174zM430 735l444 482h-159v174h545v-174h-148l-426 -482l438 -561h150v-174h-565v174h149z" />
    <glyph glyph-name="L" unicode="L" horiz-adv-x="1067" 
d="M213 174v1043h-184v174h569v-174h-176v-1043h434v473h193v-647h-1020v174h184z" />
    <glyph glyph-name="M" unicode="M" horiz-adv-x="1792" 
d="M219 174v1043h-170v174h479l363 -953l366 953h486v-174h-168v-1043h168v-174h-510v174h149v1045h-4l-473 -1233h-41l-469 1231h-4v-1043h150v-174h-492v174h170z" />
    <glyph glyph-name="N" unicode="N" horiz-adv-x="1472" 
d="M207 174v1043h-199v174h475l602 -1082h5v908h-195v174h571v-174h-204v-1231h-220l-659 1188h-4v-1000h201v-174h-572v174h199z" />
    <glyph glyph-name="O" unicode="O" horiz-adv-x="1642" 
d="M102 694q0 155 54 289t148.5 228.5t228 148t288.5 53.5q206 0 370.5 -92t256.5 -256.5t92 -370.5t-92 -370t-256.5 -255.5t-370.5 -91.5q-155 0 -289 53.5t-228.5 147.5t-148 227.5t-53.5 288.5zM332 694q0 -110 38 -209t103 -169.5t155.5 -112t192.5 -41.5
q136 0 248.5 70t177 192.5t64.5 269.5q0 148 -64.5 271t-177 193.5t-248.5 70.5t-248.5 -70.5t-176.5 -193.5t-64 -271z" />
    <glyph glyph-name="P" unicode="P" horiz-adv-x="1173" 
d="M215 174v1043h-174v174h616q111 0 196 -28.5t134.5 -72t81 -103t42.5 -114t11 -112.5q0 -99 -33.5 -180t-82.5 -130q-69 -69 -168 -94t-258 -25h-156v-358h182v-174h-565v174h174zM424 700h174q93 0 156 20t96 58.5t46 82.5t13 102q0 122 -64.5 188t-180.5 66h-240v-517z
" />
    <glyph glyph-name="Q" unicode="Q" horiz-adv-x="1642" 
d="M915 -14v-2q256 -112 367 -74l-74 -172q-66 -12 -117.5 -2t-112 35t-110 50.5t-111 45.5t-114.5 20q-86 0 -141 -49l-62 86q36 36 69 54t87 28v4q-151 44 -264 147.5t-171.5 243.5t-58.5 299q0 205 91.5 368t255 254t368.5 91q156 0 290.5 -53.5t229.5 -147t149 -226.5
t54 -288q0 -131 -38.5 -246.5t-102.5 -197t-145.5 -142.5t-168 -91.5t-170.5 -34.5zM332 698q0 -232 138 -385t347 -153t351.5 155.5t142.5 382.5t-143 379t-355 152t-346.5 -149.5t-134.5 -381.5z" />
    <glyph glyph-name="R" unicode="R" horiz-adv-x="1236" 
d="M217 174v1043h-190v174h643q225 0 333.5 -98t108.5 -265q0 -134 -74 -223.5t-213 -124.5l246 -506h170v-174h-301l-315 651h-199v-477h180v-174h-579v174h190zM426 825h236q70 0 119.5 18t73.5 49.5t34 64t10 71.5q0 91 -58.5 140t-160.5 49h-254v-392z" />
    <glyph glyph-name="S" unicode="S" horiz-adv-x="1087" 
d="M70 0v504h172v-123q134 -229 323 -229q106 0 176 66.5t70 166.5q0 64 -33.5 108.5t-87 66.5t-125 43t-141 38.5t-143 53t-123.5 85.5q-92 92 -92 252q0 93 33.5 167.5t91 120t129 69.5t151.5 24q170 0 311 -108v92h172v-420h-172v96q-57 83 -128.5 122.5t-166.5 39.5
q-105 0 -169 -49t-64 -129q0 -72 47 -119q36 -36 118 -63t164 -43t174.5 -53.5t147.5 -92.5q56 -56 87.5 -135t31.5 -164q0 -177 -125.5 -293.5t-314.5 -116.5q-192 0 -342 138v-115h-172z" />
    <glyph glyph-name="T" unicode="T" horiz-adv-x="1173" 
d="M1149 1391v-529h-172v355h-287v-1043h182v-174h-573v174h182v1043h-286v-355h-172v529h1126z" />
    <glyph glyph-name="U" unicode="U" horiz-adv-x="1386" 
d="M977 1217h-162v174h545v-174h-174v-801q0 -103 -29.5 -182.5t-76 -127t-111.5 -77.5t-128.5 -41t-135.5 -11q-117 0 -206 23.5t-145 63t-91 97t-48.5 119.5t-13.5 138v799h-174v174h544v-174h-161v-805q0 -141 75 -204t203 -63q154 0 221.5 67.5t67.5 215.5v789z" />
    <glyph glyph-name="V" unicode="V" horiz-adv-x="1449" 
d="M633 -14l-465 1231h-172v174h549v-174h-162l354 -934l346 934h-161v174h534v-174h-170l-459 -1231h-194z" />
    <glyph glyph-name="W" unicode="W" horiz-adv-x="2048" 
d="M522 -14l-354 1231h-168v174h532v-174h-165l260 -910h4l250 910h-166v174h639v-174h-164l254 -910h4l256 910h-166v174h510v-174h-164l-346 -1231h-199l-311 1099h-4l-309 -1099h-193z" />
    <glyph glyph-name="X" unicode="X" horiz-adv-x="1343" 
d="M209 174l352 526l-352 517h-180v174h559v-174h-156l240 -353l243 353h-161v174h534v-174h-174l-342 -498l373 -545h180v-174h-571v174h161l-253 377l-254 -377h167v-174h-555v174h189z" />
    <glyph glyph-name="Y" unicode="Y" horiz-adv-x="1323" 
d="M563 174v459l-413 584h-170v174h571v-174h-174l305 -429l281 429h-175v174h555v-174h-184l-387 -584v-459h191v-174h-586v174h186z" />
    <glyph glyph-name="Z" unicode="Z" horiz-adv-x="1153" 
d="M51 0v174l746 1043h-541v-244h-172v418h979v-154l-760 -1063h610v268h172v-442h-1034z" />
    <glyph glyph-name="bracketleft" unicode="[" horiz-adv-x="768" 
d="M215 1393h494v-146h-301v-1519h301v-146h-494v1811z" />
    <glyph glyph-name="backslash" unicode="\" horiz-adv-x="897" 
d="M721 -29l-711 1420h166l711 -1420h-166z" />
    <glyph glyph-name="bracketright" unicode="]" horiz-adv-x="768" 
d="M553 -418h-494v146h301v1519h-301v146h494v-1811z" />
    <glyph glyph-name="asciicircum" unicode="^" horiz-adv-x="960" 
d="M549 1391l426 -717h-176l-316 530l-321 -530h-176l432 717h131z" />
    <glyph glyph-name="underscore" unicode="_" horiz-adv-x="1024" 
d="M1036 -256h-1048v102h1048v-102z" />
    <glyph glyph-name="grave" unicode="`" horiz-adv-x="681" 
d="M528 1096h-129l-288 317h276z" />
    <glyph glyph-name="a" unicode="a" horiz-adv-x="1087" 
d="M1065 168v-168h-336v119q-91 -74 -161.5 -104.5t-149.5 -30.5q-138 0 -233 89t-95 218q0 132 101.5 222.5t250.5 90.5q65 0 136 -22t129 -60v127q0 96 -60 141.5t-155 45.5q-142 0 -207 -115l-183 49q123 225 418 225q102 0 178 -24t118.5 -66.5t62.5 -94t20 -112.5v-530
h166zM707 246v114q-126 97 -250 97q-80 0 -132.5 -47t-52.5 -119q0 -70 48.5 -115t125.5 -45q64 0 133 30.5t128 84.5z" />
    <glyph glyph-name="b" unicode="b" horiz-adv-x="1323" 
d="M51 0v168h172v1055h-168v168h359v-560q78 86 162 125t190 39q205 0 338 -141t133 -360q0 -221 -134.5 -365.5t-338.5 -144.5q-106 0 -200.5 44t-145.5 117h-4v-145h-363zM420 481q0 -142 86 -235.5t217 -93.5q134 0 221.5 98t87.5 248q0 84 -28.5 149t-75 101.5t-98 54.5
t-103.5 18q-135 0 -221 -95.5t-86 -244.5z" />
    <glyph glyph-name="c" unicode="c" horiz-adv-x="1067" 
d="M991 967v-365h-172q-15 102 -84 162q-66 57 -172 57q-129 0 -208 -90.5t-79 -236.5q0 -155 82 -252t213 -97q97 0 172.5 49.5t118.5 141.5l158 -74q-63 -142 -179.5 -216.5t-275.5 -74.5q-121 0 -218 46.5t-155.5 122.5t-89 166.5t-30.5 185.5q0 103 37.5 196t101 160.5
t151.5 107t185 39.5q161 0 272 -94v66h172z" />
    <glyph glyph-name="d" unicode="d" horiz-adv-x="1280" 
d="M1276 168v-168h-369v143q-146 -159 -344 -159q-68 0 -134 18t-128 57t-109 95.5t-75.5 140.5t-28.5 184q0 220 137.5 368t341.5 148q194 0 340 -155v383h-184v168h377v-1223h176zM293 485q0 -149 85 -241t220 -92t222 97t87 245q0 146 -86.5 236.5t-224.5 90.5
q-129 0 -216 -96t-87 -240z" />
    <glyph glyph-name="e" unicode="e" horiz-adv-x="1173" 
d="M1098 436h-813q22 -141 109 -219t222 -78q95 0 178 41t136 117l168 -74q-78 -121 -204 -186.5t-282 -65.5q-235 0 -386.5 144t-151.5 368q0 150 75 269.5t190 181t243 61.5q101 0 193.5 -38t164.5 -108t115 -177t43 -236zM291 575h612q-23 116 -113 191.5t-204 75.5
t-193.5 -72.5t-101.5 -194.5z" />
    <glyph glyph-name="f" unicode="f" 
d="M209 168v631h-141v168h141v174q0 137 73.5 207.5t184.5 70.5q103 0 168 -58t82 -165l-168 -27q-9 95 -74 95q-35 0 -54.5 -27.5t-19.5 -77.5v-192h164v-168h-164v-631h187v-168h-516v168h137z" />
    <glyph glyph-name="g" unicode="g" horiz-adv-x="1280" 
d="M1257 967v-168h-174v-807q0 -100 -33.5 -179.5t-86 -128.5t-122.5 -82t-138.5 -46t-137.5 -13q-111 0 -198 29.5t-183 99.5l123 140q125 -101 275 -101q38 0 78 8t82.5 28t75.5 50t54 79t21 110v145h-4q-57 -72 -152 -116t-194 -44q-204 0 -337.5 141.5t-133.5 356.5
q0 143 63 261t173 185.5t243 67.5q191 0 342 -154v138h364zM276 473q0 -147 85 -240.5t219 -93.5q135 0 225 95.5t90 238.5q0 141 -89 236.5t-222 95.5q-132 0 -220 -95t-88 -237z" />
    <glyph glyph-name="h" unicode="h" horiz-adv-x="1173" 
d="M217 168v1055h-174v168h367v-535q90 73 166.5 106t154.5 33q123 0 194.5 -69.5t71.5 -223.5v-534h166v-168h-358v662q0 163 -119 163q-107 0 -276 -127v-530h165v-168h-534v168h176z" />
    <glyph glyph-name="i" unicode="i" 
d="M203 168v631h-154v168h346v-799h154v-168h-500v168h154zM295 1411q47 0 81 -34t34 -81t-34 -80.5t-81 -33.5t-81 33.5t-34 80.5t34 81t81 34z" />
    <glyph glyph-name="j" unicode="j" 
d="M-37 -424v172q52 -8 94 -8q97 0 133.5 46t36.5 153v860h-149v168h342v-961q0 -45 -1 -75t-4.5 -71t-10 -68.5t-19 -61t-30 -55.5t-43.5 -44.5t-59.5 -35.5t-78.5 -21t-100 -8q-62 0 -111 10zM317 1411q47 0 81 -34t34 -81t-34 -80.5t-81 -33.5t-80.5 33.5t-33.5 80.5
t33.5 81t80.5 34z" />
    <glyph glyph-name="k" unicode="k" horiz-adv-x="1173" 
d="M223 168v1055h-174v168h367v-869l362 285v4h-162v156h537v-156h-149l-363 -301l342 -342h166v-168h-246l-487 487v-319h143v-168h-512v168h176z" />
    <glyph glyph-name="l" unicode="l" 
d="M225 168v1055h-172v168h365v-1223h149v-168h-518v168h176z" />
    <glyph glyph-name="m" unicode="m" horiz-adv-x="1771" 
d="M233 168v631h-161v168h354v-121q172 137 328 137q82 0 142 -39.5t91 -112.5q104 82 184.5 117t163.5 35q121 0 189.5 -70.5t68.5 -195.5v-549h166v-168h-358v674q0 70 -30.5 105.5t-86.5 35.5q-122 0 -274 -127v-520h166v-168h-359v670q0 71 -34 104t-85 33
q-102 0 -272 -119v-520h166v-168h-535v168h176z" />
    <glyph glyph-name="n" unicode="n" horiz-adv-x="1173" 
d="M418 967v-117q96 70 174.5 101.5t155.5 31.5q110 0 181.5 -69.5t71.5 -204.5v-541h166v-168h-358v633q0 92 -27 134t-86 42q-123 0 -278 -123v-518h166v-168h-525v168h166v631h-170v168h363z" />
    <glyph glyph-name="o" unicode="o" horiz-adv-x="1173" 
d="M78 483q0 220 145 366t365 146q218 0 363 -146t145 -366t-146 -366t-364 -146t-363 146t-145 366zM283 483q0 -141 87 -234t216 -93q131 0 218 93t87 234q0 140 -87.5 234t-217.5 94q-129 0 -216 -94t-87 -234z" />
    <glyph glyph-name="p" unicode="p" horiz-adv-x="1280" 
d="M190 -266v1065h-161v168h354v-152h4q130 168 336 168q207 0 340 -141.5t133 -362.5q0 -216 -137 -362t-338 -146q-92 0 -180.5 38.5t-157.5 109.5v-385h186v-168h-555v168h176zM379 471q0 -141 86 -233.5t219 -92.5q140 0 226.5 94.5t86.5 247.5q0 141 -86.5 234.5
t-216.5 93.5q-135 0 -225 -98t-90 -246z" />
    <glyph glyph-name="q" unicode="q" horiz-adv-x="1259" 
d="M1079 -266h176v-168h-555v168h187v389q-67 -73 -155.5 -112.5t-184.5 -39.5q-201 0 -337 146t-136 364q0 220 133 361t340 141q206 0 336 -168h4v152h354v-168h-162v-1065zM891 471q0 148 -90.5 246t-225.5 98q-132 0 -217.5 -93.5t-85.5 -236.5q0 -152 86 -246t226 -94
q133 0 220 92.5t87 233.5z" />
    <glyph glyph-name="r" unicode="r" horiz-adv-x="854" 
d="M240 168v631h-195v168h346v-217h4q44 116 126 174.5t179 58.5h125v-192h-102q-160 0 -225.5 -86t-65.5 -261v-276h209v-168h-592v168h191z" />
    <glyph glyph-name="s" unicode="s" horiz-adv-x="937" 
d="M84 0v332h170v-33q12 -72 74 -114t157 -42q91 0 145 33t54 88q0 50 -36 76.5t-96.5 37t-127 20t-140.5 38t-124 78.5q-76 76 -76 184q0 124 96 204.5t244 80.5q136 0 235 -55v39h168v-320h-168v60q-79 118 -225 118q-77 0 -123.5 -32t-46.5 -86q0 -45 39 -70t103 -35
t133 -19.5t141.5 -34.5t116.5 -69q82 -82 82 -200q0 -132 -102.5 -213.5t-268.5 -81.5q-151 0 -254 69v-53h-170z" />
    <glyph glyph-name="t" unicode="t" horiz-adv-x="618" 
d="M61 799v168h125v149l193 174v-323h178v-168h-178v-559q0 -120 178 -58v-172q-84 -26 -141 -26q-230 0 -230 229v586h-125z" />
    <glyph glyph-name="u" unicode="u" horiz-adv-x="1153" 
d="M1133 168v-168h-359v111q-165 -127 -315 -127q-269 0 -269 299v516h-137v168h330v-674q0 -141 115 -141q61 0 137 33t139 89v525h-166v168h359v-799h166z" />
    <glyph glyph-name="v" unicode="v" horiz-adv-x="1110" 
d="M483 -16l-317 815h-170v168h487v-168h-127l209 -549l209 549h-135v168h475v-168h-149l-312 -815h-170z" />
    <glyph glyph-name="w" unicode="w" horiz-adv-x="1579" 
d="M375 -16l-258 815h-119v168h408v-168h-125l182 -584h4l182 584h-106v168h469v-168h-105l183 -584h4l184 584h-135v168h436v-168h-137l-260 -815h-178l-220 700h-4l-225 -700h-180z" />
    <glyph glyph-name="x" unicode="x" horiz-adv-x="1130" 
d="M567 385l-188 -217h125v-168h-471v168h143l293 330l-279 301h-131v168h455v-168h-121l174 -187l168 187h-98v168h457v-168h-160l-264 -301l303 -330h125v-168h-463v168h137z" />
    <glyph glyph-name="y" unicode="y" horiz-adv-x="1153" 
d="M496 18l-318 781h-162v168h480v-168h-115l209 -535l205 535h-129v168h469v-168h-144l-479 -1233h-324v168h191z" />
    <glyph glyph-name="z" unicode="z" horiz-adv-x="917" 
d="M33 0v158l602 653h-393v-186h-162v342h786v-168l-610 -641h440v198h170v-356h-833z" />
    <glyph glyph-name="braceleft" unicode="{" horiz-adv-x="681" 
d="M57 401v156q52 0 90.5 16t60.5 42t35 67t17 82t4 96v174q0 83 13 144t44 111t89 76t143 26h84v-148h-31q-107 0 -139.5 -36.5t-32.5 -159.5v-138q0 -134 -19 -213t-63.5 -129t-128.5 -88q84 -38 128.5 -88t63.5 -129t19 -213v-139q0 -123 32.5 -160t139.5 -37h31v-147
h-84q-85 0 -143 25.5t-89 75.5t-44 111t-13 144v176q0 55 -4 96t-17 82t-35 67t-60.5 42t-90.5 16z" />
    <glyph glyph-name="bar" unicode="|" horiz-adv-x="1079" 
d="M461 1391h157v-1825h-157v1825z" />
    <glyph glyph-name="braceright" unicode="}" horiz-adv-x="681" 
d="M625 555v-156q-65 0 -108 -23t-64 -67.5t-29 -94t-8 -118.5v-174q0 -66 -7.5 -117t-26.5 -97.5t-51 -76.5t-83 -47.5t-119 -17.5h-84v147h31q108 0 141 37t33 160v137q0 197 43 286t166 144q-123 55 -166 144t-43 286v140q0 122 -33 159t-141 37h-31v148h84
q68 0 119 -17.5t83 -48t51 -77t26.5 -97.5t7.5 -117v-176q0 -69 8 -118.5t29 -94t64 -67.5t108 -23z" />
    <glyph glyph-name="asciitilde" unicode="~" horiz-adv-x="1193" 
d="M84 557v205q51 58 122.5 89.5t153.5 31.5q112 0 267 -68q6 -3 38.5 -17t41.5 -17.5l34.5 -13t38.5 -12.5t32.5 -6.5t35.5 -3.5q63 0 132.5 37t129.5 103v-211q-68 -62 -133 -88q-67 -27 -148 -27q-45 0 -93.5 11.5t-79 23.5t-81.5 35l-79 34t-71.5 22.5t-80.5 10.5
q-68 0 -124.5 -30t-135.5 -109z" />
    <glyph glyph-name="uni00A0" unicode="&#xa0;" horiz-adv-x="512" 
 />
    <glyph glyph-name="exclamdown" unicode="&#xa1;" 
d="M350 590l49 -590v-424h-200v424l49 590h102zM422 967v-246h-246v246h246z" />
    <glyph glyph-name="cent" unicode="&#xa2;" horiz-adv-x="1067" 
d="M160 -442l172 473q-116 71 -183 190t-67 271q0 83 23.5 159.5t65 135.5t97.5 106t121 71t135.5 30.5t141.5 -15.5l155 442h111l-170 -475q29 -14 67 -45v66h172v-365h-172q-13 70 -40.5 114t-83.5 72l-224 -626q118 -39 225.5 8t165.5 166l158 -74q-35 -77 -86.5 -135
t-111 -92t-128.5 -50t-139.5 -14t-142.5 21l-154 -434h-108zM401 221l207 596q-128 23 -224.5 -68t-96.5 -257q0 -96 24 -150.5t90 -120.5z" />
    <glyph glyph-name="sterling" unicode="&#xa3;" horiz-adv-x="1110" 
d="M602 1413q182 0 283.5 -105t91.5 -286h-193q5 23 6 49.5t-7 59.5t-25.5 59t-54.5 43.5t-89 17.5q-88 0 -137 -39.5t-49 -121.5q0 -20 3 -42.5t10.5 -50.5l13 -47.5t17.5 -53.5t17 -47l19 -49t16 -40h248v-162h-201q18 -76 12 -169.5t-30 -168.5l53 -26l60 -28.5t54 -18.5
t60 -9q77 0 119.5 46t50.5 128h121q0 -178 -81 -276.5t-212 -98.5q-44 0 -81 7.5t-78.5 29.5t-62.5 35.5l-75 50.5q-101 -123 -219 -123q-84 0 -140 51.5t-56 133.5q0 84 60 140t146 56q75 0 148 -39q0 150 -47 279h-307v162h247q-30 57 -57 157.5t-27 161.5
q0 159 103 246.5t270 87.5zM383 174q-50 36 -80 50t-57 14q-34 0 -57 -22t-23 -54q0 -34 23.5 -55t60.5 -21q38 0 67.5 20t65.5 68z" />
    <glyph glyph-name="currency" unicode="&#xa4;" horiz-adv-x="1366" 
d="M182 1090l107 106l129 -131q122 86 262 86q144 0 266 -86l131 131l105 -106l-129 -132q84 -125 84 -268q0 -140 -84 -258l129 -129l-105 -104l-131 129q-127 -88 -268 -88q-142 0 -260 88l-129 -129l-107 104l131 129q-86 137 -86 270q0 134 86 256zM682 1004
q-127 0 -217 -91t-90 -219t89.5 -217.5t217.5 -89.5t217.5 89.5t89.5 217.5t-90 219t-217 91z" />
    <glyph glyph-name="yen" unicode="&#xa5;" horiz-adv-x="1323" 
d="M485 1059h371l102 158h-174v174h555v-174h-184l-104 -158h268v-117h-346l-205 -309h551v-117h-551v-342h190v-174h-585v174h186v342h-555v117h555l-217 309h-338v117h254l-113 158h-170v174h572v-174h-174zM780 942h-211l109 -154z" />
    <glyph glyph-name="brokenbar" unicode="&#xa6;" horiz-adv-x="1079" 
d="M461 344h157v-778h-157v778zM461 1391h157v-779h-157v779z" />
    <glyph glyph-name="section" unicode="&#xa7;" horiz-adv-x="980" 
d="M872 1051h-190q-15 196 -219 196q-82 0 -135.5 -40.5t-53.5 -104.5q0 -51 36.5 -90t94.5 -65t128 -50.5t140 -54t128 -66t94.5 -95.5t36.5 -136q0 -175 -197 -293q80 -46 123 -114.5t43 -151.5q0 -151 -109.5 -246.5t-281.5 -95.5q-187 0 -291 102.5t-104 267.5h190
q3 -95 57.5 -145.5t151.5 -50.5q89 0 143 40.5t54 106.5q0 39 -22.5 71t-61 54.5t-88 42.5t-104 39l-109 39.5t-104 48.5t-88 62.5t-61 84.5t-22.5 111q0 168 201 287q-80 46 -124 116.5t-44 157.5q0 139 111.5 237.5t277.5 98.5q183 0 291 -92.5t108 -271.5zM369 745
q-78 -46 -109 -85t-31 -93q0 -32 13.5 -58t34.5 -43.5t59.5 -36.5t74.5 -33l94 -37.5t105 -45.5q68 34 107 83t39 100q0 40 -24 71.5t-68 54.5t-89 40.5l-106 40t-100 42.5z" />
    <glyph glyph-name="dieresis" unicode="&#xa8;" horiz-adv-x="681" 
d="M522 1370q47 0 81 -34t34 -81t-34 -80.5t-81 -33.5t-80.5 33.5t-33.5 80.5t33.5 81t80.5 34zM160 1370q47 0 80.5 -34t33.5 -81t-33.5 -80.5t-80.5 -33.5t-81 33.5t-34 80.5t34 81t81 34z" />
    <glyph glyph-name="copyright" unicode="&#xa9;" horiz-adv-x="1515" 
d="M999 614l123 -36q-31 -128 -128 -201.5t-236 -73.5q-180 0 -288 118t-108 314q0 197 108.5 310.5t295.5 113.5q131 0 219.5 -60.5t122.5 -174.5l-119 -29q-29 74 -87.5 114t-139.5 40q-120 0 -191 -86.5t-71 -231.5q0 -144 67.5 -226.5t184.5 -82.5q92 0 158 51.5
t89 140.5zM756 1491q154 0 294 -59.5t241 -160.5t160.5 -240.5t59.5 -293.5q0 -206 -101 -379.5t-274.5 -274.5t-379.5 -101q-154 0 -293.5 59.5t-240.5 160.5t-160.5 241t-59.5 294t59.5 293.5t160.5 240.5t240.5 160.5t293.5 59.5zM756 1366q-128 0 -244.5 -49.5
t-201 -134t-134 -201t-49.5 -244.5t49.5 -245t134 -201.5t201 -134.5t244.5 -50q171 0 316 84.5t229.5 230t84.5 316.5t-84.5 316t-229.5 229t-316 84z" />
    <glyph glyph-name="ordfeminine" unicode="&#xaa;" horiz-adv-x="704" 
d="M676 918v-103h-215v72q-88 -82 -201 -82q-89 0 -151 53t-62 131q0 80 67 134.5t165 54.5q85 0 170 -50v80q0 51 -36 80t-104 29q-90 0 -135 -70l-117 31q77 135 271 135q241 0 241 -186v-309h107zM449 965v67q-77 58 -160 58q-54 0 -88.5 -28t-34.5 -71t32 -69.5
t83 -26.5q88 0 168 70z" />
    <glyph glyph-name="guillemotleft" unicode="&#xab;" horiz-adv-x="980" 
d="M666 485l292 -485h-194l-303 485l303 486h194zM238 485l292 -485h-194l-303 485l303 486h194z" />
    <glyph glyph-name="logicalnot" unicode="&#xac;" horiz-adv-x="1366" 
d="M135 993h1096v-645h-158v488h-938v157z" />
    <glyph glyph-name="uni00AD" unicode="&#xad;" horiz-adv-x="724" 
d="M63 563h601v-168h-601v168z" />
    <glyph glyph-name="registered" unicode="&#xae;" horiz-adv-x="1515" 
d="M426 319v811h354q70 0 124.5 -19.5t86 -51.5t47 -69.5t15.5 -78.5q0 -94 -65.5 -157.5t-166.5 -69.5v-4q77 -28 152 -145l135 -216h-160l-71 127q-76 136 -121.5 177t-120.5 41h-78v-345h-131zM557 776h186q80 0 125 32t45 91q0 55 -38.5 88t-116.5 33h-201v-244z
M756 1491q154 0 294 -59.5t241 -160.5t160.5 -240.5t59.5 -293.5q0 -206 -101 -379.5t-274.5 -274.5t-379.5 -101q-154 0 -293.5 59.5t-240.5 160.5t-160.5 241t-59.5 294t59.5 293.5t160.5 240.5t240.5 160.5t293.5 59.5zM756 1366q-128 0 -244.5 -49.5t-201 -134
t-134 -201t-49.5 -244.5t49.5 -245t134 -201.5t201 -134.5t244.5 -50q171 0 316 84.5t229.5 230t84.5 316.5t-84.5 316t-229.5 229t-316 84z" />
    <glyph glyph-name="macron" unicode="&#xaf;" horiz-adv-x="681" 
d="M49 1192v108h584v-108h-584z" />
    <glyph glyph-name="degree" unicode="&#xb0;" horiz-adv-x="811" 
d="M406 1307q-85 0 -141 -56t-56 -141t56 -141t141 -56t140.5 56t55.5 141t-55.5 141t-140.5 56zM406 1415q128 0 217.5 -89.5t89.5 -217.5t-89.5 -217.5t-217.5 -89.5t-218 90t-90 217t90 217t218 90z" />
    <glyph glyph-name="plusminus" unicode="&#xb1;" horiz-adv-x="1366" 
d="M135 109h1096v-158h-1096v158zM604 760h-469v158h469v468h158v-468h469v-158h-469v-469h-158v469z" />
    <glyph glyph-name="two.superior" unicode="&#xb2;" horiz-adv-x="681" 
d="M606 946l-8 -266h-549q0 70 22.5 128.5t58.5 99.5t79.5 75t87 61t79.5 51.5t58.5 52.5t22.5 58q0 53 -32.5 82t-92.5 29q-73 0 -106 -45t-21 -148h-135q-14 133 56 211t210 78q117 0 189.5 -55t72.5 -144q0 -59 -36.5 -107t-91 -82l-110.5 -66.5t-103.5 -77t-61.5 -97.5
h284v162h127z" />
    <glyph glyph-name="three.superior" unicode="&#xb3;" horiz-adv-x="681" 
d="M299 1006h-51v100h55q154 0 154 102q0 50 -31.5 79.5t-85.5 29.5q-63 0 -92.5 -33.5t-30.5 -109.5h-139q0 239 258 239q117 0 186.5 -53.5t69.5 -142.5q0 -51 -22 -88t-74 -70q73 -31 103 -69.5t30 -102.5q0 -98 -82.5 -158.5t-214.5 -60.5q-141 0 -216 68t-75 196h133
q1 -83 44.5 -125.5t123.5 -42.5q67 0 107 32.5t40 86.5q0 58 -48 90.5t-142 32.5z" />
    <glyph glyph-name="acute" unicode="&#xb4;" horiz-adv-x="681" 
d="M156 1096l141 317h276l-288 -317h-129z" />
    <glyph glyph-name="mu" unicode="&#xb5;" horiz-adv-x="1130" 
d="M993 967v-967h-159v125h-5q-54 -81 -113 -114.5t-149 -33.5q-85 0 -139.5 28.5t-110.5 100.5h-4v-540h-178v1401h178v-484q0 -168 62.5 -257t181.5 -89q108 0 183 80t75 232v518h178z" />
    <glyph glyph-name="paragraph" unicode="&#xb6;" horiz-adv-x="1110" 
d="M403 -434v995q-186 10 -294.5 120.5t-108.5 289.5q0 85 27 158.5t81 133t144 94t207 34.5h647v-174h-143v-1651h-172v1651h-216v-1651h-172z" />
    <glyph glyph-name="periodcentered" unicode="&#xb7;" 
d="M176 549v246h246v-246h-246z" />
    <glyph glyph-name="cedilla" unicode="&#xb8;" horiz-adv-x="681" 
d="M221 -414v103q76 -2 111 12.5t35 54.5q0 55 -80 58l32 200h95l-13 -90q56 -14 86.5 -55t30.5 -102q0 -79 -56 -130t-169 -51h-72z" />
    <glyph glyph-name="one.superior" unicode="&#xb9;" horiz-adv-x="681" 
d="M268 778v525h-114v98h249v-623h109v-98h-356v98h112z" />
    <glyph glyph-name="ordmasculine" unicode="&#xba;" horiz-adv-x="768" 
d="M53 1106q0 132 94.5 219.5t237.5 87.5q141 0 235.5 -87.5t94.5 -219.5t-94.5 -219.5t-235.5 -87.5q-143 0 -237.5 87.5t-94.5 219.5zM184 1106q0 -85 57.5 -141t143.5 -56q85 0 142 56t57 141q0 83 -57 138.5t-142 55.5q-86 0 -143.5 -55.5t-57.5 -138.5z" />
    <glyph glyph-name="guillemotright" unicode="&#xbb;" horiz-adv-x="980" 
d="M743 485l-292 486h194l303 -486l-303 -485h-194zM315 485l-292 486h194l303 -486l-303 -485h-194z" />
    <glyph glyph-name="onequarter" unicode="&#xbc;" horiz-adv-x="1984" 
d="M1286 190h-276q-14 51 -54 86l347 451h114v-438h131v-99h-131v-92h76v-98h-295v98h88v92zM199 0l1104 1391h120l-1101 -1391h-123zM1286 289v258h-4l-195 -258h199zM268 778v525h-114v98h249v-623h109v-98h-356v98h112z" />
    <glyph glyph-name="onehalf" unicode="&#xbd;" horiz-adv-x="1984" 
d="M199 0l1104 1391h120l-1101 -1391h-123zM1567 266l-8 -266h-549q0 70 22.5 128.5t58.5 99.5t79.5 75t86.5 61l79 51.5t58.5 52.5t22.5 58q0 53 -32.5 82t-92.5 29q-73 0 -106 -45t-21 -148h-135q-14 133 56 211t210 78q117 0 190 -54.5t73 -143.5q0 -59 -36.5 -107
t-91 -82.5l-111 -67t-104 -77t-61.5 -97.5h285v162h127zM268 778v525h-114v98h249v-623h109v-98h-356v98h112z" />
    <glyph glyph-name="threequarters" unicode="&#xbe;" horiz-adv-x="1984" 
d="M1468 190h-276q-14 53 -53 86l346 451h114v-438h132v-99h-132v-92h76v-98h-295v98h88v92zM381 0l1104 1391h121l-1102 -1391h-123zM1468 289v258h-4l-194 -258h198zM377 1006h-51v100h55q154 0 154 102q0 50 -31.5 79.5t-85.5 29.5q-63 0 -92.5 -33.5t-30.5 -109.5h-139
q0 239 258 239q117 0 186.5 -53.5t69.5 -142.5q0 -51 -22.5 -87.5t-74.5 -70.5q73 -31 103.5 -69.5t30.5 -102.5q0 -98 -82.5 -158.5t-214.5 -60.5q-141 0 -216 68t-75 196h133q1 -83 44.5 -125.5t123.5 -42.5q67 0 107 32.5t40 86.5q0 58 -48 90.5t-142 32.5z" />
    <glyph glyph-name="questiondown" unicode="&#xbf;" horiz-adv-x="960" 
d="M479 592h103l24 -434l-14 -6q-87 15 -159 -0.5t-120.5 -70.5t-48.5 -144q0 -101 60 -161.5t161 -60.5q117 0 177 72.5t51 212.5h188q9 -100 -14 -180t-65 -128.5t-100.5 -80.5t-115 -44.5t-114.5 -12.5q-196 0 -310 105.5t-114 287.5q0 72 23.5 138.5t69 121.5t122 86.5
t172.5 28.5zM655 967v-246h-245v246h245z" />
    <glyph glyph-name="Agrave" unicode="&#xc0;" horiz-adv-x="1429" 
d="M971 489h-500l-109 -315h170v-174h-548v174h168l380 1061h-163v156h710v-156h-164l375 -1061h156v-174h-545v174h172zM918 651l-185 584h-18l-193 -584h396zM903 1520h-129l-289 317h277z" />
    <glyph glyph-name="Aacute" unicode="&#xc1;" horiz-adv-x="1429" 
d="M971 489h-500l-109 -315h170v-174h-548v174h168l380 1061h-163v156h710v-156h-164l375 -1061h156v-174h-545v174h172zM918 651l-185 584h-18l-193 -584h396zM530 1520l142 317h276l-289 -317h-129z" />
    <glyph glyph-name="Acircumflex" unicode="&#xc2;" horiz-adv-x="1429" 
d="M971 489h-500l-109 -315h170v-174h-548v174h168l380 1061h-163v156h710v-156h-164l375 -1061h156v-174h-545v174h172zM918 651l-185 584h-18l-193 -584h396zM713 1698l-166 -176h-135l168 313h266l174 -313h-141z" />
    <glyph glyph-name="Atilde" unicode="&#xc3;" horiz-adv-x="1429" 
d="M971 489h-500l-109 -315h170v-174h-548v174h168l380 1061h-163v156h710v-156h-164l375 -1061h156v-174h-545v174h172zM918 651l-185 584h-18l-193 -584h396zM936 1815h111q0 -128 -47.5 -202.5t-135.5 -74.5q-42 0 -89.5 19.5t-82.5 43t-73 43t-62 19.5q-33 0 -45 -27
t-12 -84h-115q0 136 51.5 202.5t130.5 66.5q37 0 83 -19t81.5 -42.5t73 -42.5t59.5 -19q69 0 72 117z" />
    <glyph glyph-name="Adieresis" unicode="&#xc4;" horiz-adv-x="1429" 
d="M971 489h-500l-109 -315h170v-174h-548v174h168l380 1061h-163v156h710v-156h-164l375 -1061h156v-174h-545v174h172zM918 651l-185 584h-18l-193 -584h396zM897 1794q47 0 81 -34t34 -81t-34 -80.5t-81 -33.5t-81 33.5t-34 80.5t34 81t81 34zM535 1794q47 0 80.5 -34
t33.5 -81t-33.5 -80.5t-80.5 -33.5t-81 33.5t-34 80.5t34 81t81 34z" />
    <glyph glyph-name="Aring" unicode="&#xc5;" horiz-adv-x="1429" 
d="M971 489h-500l-109 -315h170v-174h-548v174h168l380 1061h-163v156h710v-156h-164l375 -1061h156v-174h-545v174h172zM918 651l-185 584h-18l-193 -584h396zM915 1679q0 -83 -58.5 -141.5t-141.5 -58.5t-141 58.5t-58 141.5t58 141t141 58t141.5 -58t58.5 -141zM836 1679
q0 51 -35 86t-86 35t-86 -35t-35 -86t35 -85.5t86 -34.5t86 34.5t35 85.5z" />
    <glyph glyph-name="AE" unicode="&#xc6;" horiz-adv-x="1921" 
d="M852 635h-391l-240 -461h152v-174h-494v174h135l539 1043h-221v174h1505v-418h-172v244h-604v-408h524v-174h-524v-461h604v254h172v-428h-1206v174h221v461zM852 809v408h-88l-215 -408h303z" />
    <glyph glyph-name="Ccedilla" unicode="&#xc7;" horiz-adv-x="1556" 
d="M655 -186l29 170q-268 32 -432 226.5t-164 483.5q0 324 189.5 521.5t502.5 197.5q271 0 459 -149v127h180v-447h-180q-60 132 -180 208.5t-268 76.5q-207 0 -340.5 -149.5t-133.5 -379.5q0 -227 138.5 -380.5t343.5 -153.5q72 0 144.5 24.5t138 71.5t117.5 125.5
t77 177.5l182 -100q-62 -228 -242 -358t-438 -130l-8 -53q56 -14 86.5 -55t30.5 -102q0 -79 -56 -130t-169 -51h-72v103q76 -2 110.5 12.5t34.5 54.5q0 55 -80 58z" />
    <glyph glyph-name="Egrave" unicode="&#xc8;" horiz-adv-x="1280" 
d="M238 174v1043h-181v174h1153v-418h-172v244h-592v-414h517v-174h-517v-455h592v254h172v-428h-1153v174h181zM827 1520h-129l-288 317h276z" />
    <glyph glyph-name="Eacute" unicode="&#xc9;" horiz-adv-x="1280" 
d="M238 174v1043h-181v174h1153v-418h-172v244h-592v-414h517v-174h-517v-455h592v254h172v-428h-1153v174h181zM455 1520l141 317h276l-288 -317h-129z" />
    <glyph glyph-name="Ecircumflex" unicode="&#xca;" horiz-adv-x="1280" 
d="M238 174v1043h-181v174h1153v-418h-172v244h-592v-414h517v-174h-517v-455h592v254h172v-428h-1153v174h181zM637 1698l-166 -176h-135l168 313h266l174 -313h-141z" />
    <glyph glyph-name="Edieresis" unicode="&#xcb;" horiz-adv-x="1280" 
d="M238 174v1043h-181v174h1153v-418h-172v244h-592v-414h517v-174h-517v-455h592v254h172v-428h-1153v174h181zM821 1794q47 0 81 -34t34 -81t-34 -80.5t-81 -33.5t-80.5 33.5t-33.5 80.5t33.5 81t80.5 34zM459 1794q47 0 80.5 -34t33.5 -81t-33.5 -80.5t-80.5 -33.5
t-81 33.5t-34 80.5t34 81t81 34z" />
    <glyph glyph-name="Igrave" unicode="&#xcc;" horiz-adv-x="641" 
d="M215 174v1043h-152v174h512v-174h-151v-1043h151v-174h-512v174h152zM508 1520h-129l-289 317h277z" />
    <glyph glyph-name="Iacute" unicode="&#xcd;" horiz-adv-x="641" 
d="M215 174v1043h-152v174h512v-174h-151v-1043h151v-174h-512v174h152zM135 1520l141 317h277l-289 -317h-129z" />
    <glyph glyph-name="Icircumflex" unicode="&#xce;" horiz-adv-x="641" 
d="M215 174v1043h-152v174h512v-174h-151v-1043h151v-174h-512v174h152zM317 1698l-165 -176h-136l168 313h267l174 -313h-142z" />
    <glyph glyph-name="Idieresis" unicode="&#xcf;" horiz-adv-x="641" 
d="M215 174v1043h-152v174h512v-174h-151v-1043h151v-174h-512v174h152zM502 1794q47 0 80.5 -34t33.5 -81t-33.5 -80.5t-80.5 -33.5t-81 33.5t-34 80.5t34 81t81 34zM139 1794q47 0 81 -34t34 -81t-34 -80.5t-81 -33.5t-80.5 33.5t-33.5 80.5t33.5 81t80.5 34z" />
    <glyph glyph-name="Eth" unicode="&#xd0;" horiz-adv-x="1492" 
d="M215 1217h-188v174h653q156 0 280 -39.5t203 -104t131 -154.5t73.5 -184.5t21.5 -199.5q0 -344 -179.5 -526.5t-547.5 -182.5h-635v174h188v434h-188v174h188v435zM424 1217v-435h317v-174h-317v-434h246q113 0 200.5 27t144.5 74t93.5 115t52 144.5t15.5 167.5
q0 114 -29 206t-88.5 162t-157 108.5t-227.5 38.5h-250z" />
    <glyph glyph-name="Ntilde" unicode="&#xd1;" horiz-adv-x="1472" 
d="M207 174v1043h-199v174h475l602 -1082h5v908h-195v174h571v-174h-204v-1231h-220l-659 1188h-4v-1000h201v-174h-572v174h199zM956 1815h111q0 -128 -47 -202.5t-135 -74.5q-42 0 -89.5 19.5t-82.5 43t-73 43t-62 19.5q-33 0 -45.5 -27t-12.5 -84h-114q0 136 51.5 202.5
t130.5 66.5q37 0 83 -19t81.5 -42.5t73 -42.5t59.5 -19q68 0 71 117z" />
    <glyph glyph-name="Ograve" unicode="&#xd2;" horiz-adv-x="1642" 
d="M102 694q0 155 54 289t148.5 228.5t228 148t288.5 53.5q206 0 370.5 -92t256.5 -256.5t92 -370.5t-92 -370t-256.5 -255.5t-370.5 -91.5q-155 0 -289 53.5t-228.5 147.5t-148 227.5t-53.5 288.5zM332 694q0 -110 38 -209t103 -169.5t155.5 -112t192.5 -41.5
q136 0 248.5 70t177 192.5t64.5 269.5q0 148 -64.5 271t-177 193.5t-248.5 70.5t-248.5 -70.5t-176.5 -193.5t-64 -271zM1010 1520h-129l-289 317h276z" />
    <glyph glyph-name="Oacute" unicode="&#xd3;" horiz-adv-x="1642" 
d="M102 694q0 155 54 289t148.5 228.5t228 148t288.5 53.5q206 0 370.5 -92t256.5 -256.5t92 -370.5t-92 -370t-256.5 -255.5t-370.5 -91.5q-155 0 -289 53.5t-228.5 147.5t-148 227.5t-53.5 288.5zM332 694q0 -110 38 -209t103 -169.5t155.5 -112t192.5 -41.5
q136 0 248.5 70t177 192.5t64.5 269.5q0 148 -64.5 271t-177 193.5t-248.5 70.5t-248.5 -70.5t-176.5 -193.5t-64 -271zM637 1520l141 317h277l-289 -317h-129z" />
    <glyph glyph-name="Ocircumflex" unicode="&#xd4;" horiz-adv-x="1642" 
d="M102 694q0 155 54 289t148.5 228.5t228 148t288.5 53.5q206 0 370.5 -92t256.5 -256.5t92 -370.5t-92 -370t-256.5 -255.5t-370.5 -91.5q-155 0 -289 53.5t-228.5 147.5t-148 227.5t-53.5 288.5zM332 694q0 -110 38 -209t103 -169.5t155.5 -112t192.5 -41.5
q136 0 248.5 70t177 192.5t64.5 269.5q0 148 -64.5 271t-177 193.5t-248.5 70.5t-248.5 -70.5t-176.5 -193.5t-64 -271zM819 1698l-166 -176h-135l168 313h266l174 -313h-141z" />
    <glyph glyph-name="Otilde" unicode="&#xd5;" horiz-adv-x="1642" 
d="M102 694q0 155 54 289t148.5 228.5t228 148t288.5 53.5q206 0 370.5 -92t256.5 -256.5t92 -370.5t-92 -370t-256.5 -255.5t-370.5 -91.5q-155 0 -289 53.5t-228.5 147.5t-148 227.5t-53.5 288.5zM332 694q0 -110 38 -209t103 -169.5t155.5 -112t192.5 -41.5
q136 0 248.5 70t177 192.5t64.5 269.5q0 148 -64.5 271t-177 193.5t-248.5 70.5t-248.5 -70.5t-176.5 -193.5t-64 -271zM1042 1815h111q0 -128 -47 -202.5t-135 -74.5q-42 0 -89.5 19.5t-82.5 43t-73 43t-62 19.5q-33 0 -45.5 -27t-12.5 -84h-114q0 136 51.5 202.5
t130.5 66.5q37 0 83 -19t81.5 -42.5t73 -42.5t59.5 -19q68 0 71 117z" />
    <glyph glyph-name="Odieresis" unicode="&#xd6;" horiz-adv-x="1642" 
d="M102 694q0 155 54 289t148.5 228.5t228 148t288.5 53.5q206 0 370.5 -92t256.5 -256.5t92 -370.5t-92 -370t-256.5 -255.5t-370.5 -91.5q-155 0 -289 53.5t-228.5 147.5t-148 227.5t-53.5 288.5zM332 694q0 -110 38 -209t103 -169.5t155.5 -112t192.5 -41.5
q136 0 248.5 70t177 192.5t64.5 269.5q0 148 -64.5 271t-177 193.5t-248.5 70.5t-248.5 -70.5t-176.5 -193.5t-64 -271zM1004 1794q47 0 80.5 -34t33.5 -81t-33.5 -80.5t-80.5 -33.5t-81 33.5t-34 80.5t34 81t81 34zM641 1794q47 0 81 -34t34 -81t-34 -80.5t-81 -33.5
t-81 33.5t-34 80.5t34 81t81 34z" />
    <glyph glyph-name="multiply" unicode="&#xd7;" horiz-adv-x="1368" 
d="M1190 1065l-397 -397l397 -398l-113 -112l-393 395l-393 -395l-113 112l397 398l-397 397l111 111l395 -396l395 396z" />
    <glyph glyph-name="Oslash" unicode="&#xd8;" horiz-adv-x="1642" 
d="M1466 1323l-112 -129q91 -95 138.5 -223t47.5 -275q0 -205 -93 -369.5t-258.5 -257t-371.5 -92.5q-242 0 -428 129l-113 -126l-102 86l115 129q-89 99 -138 232t-49 280q0 201 91.5 362.5t255 252.5t366.5 91q249 0 436 -131l115 129zM1206 1028l-680 -768
q125 -98 291 -98q207 0 350.5 155.5t143.5 380.5q0 191 -105 330zM432 356l682 770q-135 103 -299 103q-210 0 -346.5 -149t-136.5 -378q0 -198 100 -346z" />
    <glyph glyph-name="Ugrave" unicode="&#xd9;" horiz-adv-x="1386" 
d="M977 1217h-162v174h545v-174h-174v-801q0 -103 -29.5 -182.5t-76 -127t-111.5 -77.5t-128.5 -41t-135.5 -11q-117 0 -206 23.5t-145 63t-91 97t-48.5 119.5t-13.5 138v799h-174v174h544v-174h-161v-805q0 -141 75 -204t203 -63q154 0 221.5 67.5t67.5 215.5v789z
M881 1520h-129l-289 317h276z" />
    <glyph glyph-name="Uacute" unicode="&#xda;" horiz-adv-x="1386" 
d="M977 1217h-162v174h545v-174h-174v-801q0 -103 -29.5 -182.5t-76 -127t-111.5 -77.5t-128.5 -41t-135.5 -11q-117 0 -206 23.5t-145 63t-91 97t-48.5 119.5t-13.5 138v799h-174v174h544v-174h-161v-805q0 -141 75 -204t203 -63q154 0 221.5 67.5t67.5 215.5v789z
M508 1520l141 317h277l-289 -317h-129z" />
    <glyph glyph-name="Ucircumflex" unicode="&#xdb;" horiz-adv-x="1386" 
d="M977 1217h-162v174h545v-174h-174v-801q0 -103 -29.5 -182.5t-76 -127t-111.5 -77.5t-128.5 -41t-135.5 -11q-117 0 -206 23.5t-145 63t-91 97t-48.5 119.5t-13.5 138v799h-174v174h544v-174h-161v-805q0 -141 75 -204t203 -63q154 0 221.5 67.5t67.5 215.5v789z
M690 1698l-166 -176h-135l168 313h266l174 -313h-141z" />
    <glyph glyph-name="Udieresis" unicode="&#xdc;" horiz-adv-x="1386" 
d="M977 1217h-162v174h545v-174h-174v-801q0 -103 -29.5 -182.5t-76 -127t-111.5 -77.5t-128.5 -41t-135.5 -11q-117 0 -206 23.5t-145 63t-91 97t-48.5 119.5t-13.5 138v799h-174v174h544v-174h-161v-805q0 -141 75 -204t203 -63q154 0 221.5 67.5t67.5 215.5v789z
M874 1794q47 0 81 -34t34 -81t-34 -80.5t-81 -33.5t-80.5 33.5t-33.5 80.5t33.5 81t80.5 34zM512 1794q47 0 81 -34t34 -81t-34 -80.5t-81 -33.5t-81 33.5t-34 80.5t34 81t81 34z" />
    <glyph glyph-name="Yacute" unicode="&#xdd;" horiz-adv-x="1323" 
d="M563 174v459l-413 584h-170v174h571v-174h-174l305 -429l281 429h-175v174h555v-174h-184l-387 -584v-459h191v-174h-586v174h186zM477 1520l141 317h277l-289 -317h-129z" />
    <glyph glyph-name="Thorn" unicode="&#xde;" horiz-adv-x="1173" 
d="M215 174v1043h-174v174h565v-174h-182v-105h233q111 0 196 -24.5t134.5 -62.5t81 -92t42.5 -105t11 -109q0 -59 -11 -114t-42.5 -116.5t-81 -106t-135 -74t-195.5 -29.5h-233v-105h182v-174h-565v174h174zM424 446h233q252 0 252 246q0 120 -65.5 183t-186.5 63h-233
v-492z" />
    <glyph glyph-name="germandbls" unicode="&#xdf;" horiz-adv-x="1323" 
d="M422 168h151v-168h-520v168h176v743q0 145 27.5 233.5t97.5 158.5q51 51 143 83.5t191 32.5q186 0 302 -94t116 -246q0 -192 -180 -278v-4q146 -31 226.5 -136t80.5 -262q0 -186 -105 -300.5t-274 -114.5q-100 0 -174 39v159q54 -30 125 -30q102 0 162.5 68t60.5 183
q0 136 -85 215.5t-263 79.5v158q111 0 169 60t58 143q0 86 -60.5 139t-160.5 53q-141 0 -202.5 -80.5t-61.5 -255.5v-747z" />
    <glyph glyph-name="agrave" unicode="&#xe0;" horiz-adv-x="1087" 
d="M1065 168v-168h-336v119q-91 -74 -161.5 -104.5t-149.5 -30.5q-138 0 -233 89t-95 218q0 132 101.5 222.5t250.5 90.5q65 0 136 -22t129 -60v127q0 96 -60 141.5t-155 45.5q-142 0 -207 -115l-183 49q123 225 418 225q102 0 178 -24t118.5 -66.5t62.5 -94t20 -112.5v-530
h166zM707 246v114q-126 97 -250 97q-80 0 -132.5 -47t-52.5 -119q0 -70 48.5 -115t125.5 -45q64 0 133 30.5t128 84.5zM731 1096h-129l-289 317h277z" />
    <glyph glyph-name="aacute" unicode="&#xe1;" horiz-adv-x="1087" 
d="M1065 168v-168h-336v119q-91 -74 -161.5 -104.5t-149.5 -30.5q-138 0 -233 89t-95 218q0 132 101.5 222.5t250.5 90.5q65 0 136 -22t129 -60v127q0 96 -60 141.5t-155 45.5q-142 0 -207 -115l-183 49q123 225 418 225q102 0 178 -24t118.5 -66.5t62.5 -94t20 -112.5v-530
h166zM707 246v114q-126 97 -250 97q-80 0 -132.5 -47t-52.5 -119q0 -70 48.5 -115t125.5 -45q64 0 133 30.5t128 84.5zM358 1096l142 317h276l-289 -317h-129z" />
    <glyph glyph-name="acircumflex" unicode="&#xe2;" horiz-adv-x="1087" 
d="M1065 168v-168h-336v119q-91 -74 -161.5 -104.5t-149.5 -30.5q-138 0 -233 89t-95 218q0 132 101.5 222.5t250.5 90.5q65 0 136 -22t129 -60v127q0 96 -60 141.5t-155 45.5q-142 0 -207 -115l-183 49q123 225 418 225q102 0 178 -24t118.5 -66.5t62.5 -94t20 -112.5v-530
h166zM707 246v114q-126 97 -250 97q-80 0 -132.5 -47t-52.5 -119q0 -70 48.5 -115t125.5 -45q64 0 133 30.5t128 84.5zM541 1274l-166 -176h-135l168 313h266l174 -313h-141z" />
    <glyph glyph-name="atilde" unicode="&#xe3;" horiz-adv-x="1087" 
d="M1065 168v-168h-336v119q-91 -74 -161.5 -104.5t-149.5 -30.5q-138 0 -233 89t-95 218q0 132 101.5 222.5t250.5 90.5q65 0 136 -22t129 -60v127q0 96 -60 141.5t-155 45.5q-142 0 -207 -115l-183 49q123 225 418 225q102 0 178 -24t118.5 -66.5t62.5 -94t20 -112.5v-530
h166zM707 246v114q-126 97 -250 97q-80 0 -132.5 -47t-52.5 -119q0 -70 48.5 -115t125.5 -45q64 0 133 30.5t128 84.5zM764 1391h110q0 -128 -47 -202.5t-135 -74.5q-42 0 -89.5 19.5t-82.5 43t-73 43t-62 19.5q-33 0 -45 -27t-12 -84h-115q0 136 51.5 202.5t130.5 66.5
q37 0 83 -19t81.5 -42.5t73 -42.5t59.5 -19q69 0 72 117z" />
    <glyph glyph-name="adieresis" unicode="&#xe4;" horiz-adv-x="1087" 
d="M1065 168v-168h-336v119q-91 -74 -161.5 -104.5t-149.5 -30.5q-138 0 -233 89t-95 218q0 132 101.5 222.5t250.5 90.5q65 0 136 -22t129 -60v127q0 96 -60 141.5t-155 45.5q-142 0 -207 -115l-183 49q123 225 418 225q102 0 178 -24t118.5 -66.5t62.5 -94t20 -112.5v-530
h166zM707 246v114q-126 97 -250 97q-80 0 -132.5 -47t-52.5 -119q0 -70 48.5 -115t125.5 -45q64 0 133 30.5t128 84.5zM725 1370q47 0 81 -34t34 -81t-34 -80.5t-81 -33.5t-81 33.5t-34 80.5t34 81t81 34zM362 1370q47 0 81 -34t34 -81t-34 -80.5t-81 -33.5t-80.5 33.5
t-33.5 80.5t33.5 81t80.5 34z" />
    <glyph glyph-name="aring" unicode="&#xe5;" horiz-adv-x="1087" 
d="M1065 168v-168h-336v119q-91 -74 -161.5 -104.5t-149.5 -30.5q-138 0 -233 89t-95 218q0 132 101.5 222.5t250.5 90.5q65 0 136 -22t129 -60v127q0 96 -60 141.5t-155 45.5q-142 0 -207 -115l-183 49q123 225 418 225q102 0 178 -24t118.5 -66.5t62.5 -94t20 -112.5v-530
h166zM707 246v114q-126 97 -250 97q-80 0 -132.5 -47t-52.5 -119q0 -70 48.5 -115t125.5 -45q64 0 133 30.5t128 84.5zM743 1255q0 -83 -58.5 -141.5t-141.5 -58.5t-141 58.5t-58 141.5t58 141t141 58t141.5 -58t58.5 -141zM664 1255q0 51 -35 86t-86 35t-86 -35t-35 -86
t35 -85.5t86 -34.5t86 34.5t35 85.5z" />
    <glyph glyph-name="ae" unicode="&#xe6;" horiz-adv-x="1812" 
d="M1724 436h-786q10 -130 100.5 -213.5t221.5 -83.5q84 0 163 40t133 110l168 -74q-66 -113 -190 -178.5t-270 -65.5q-271 0 -433 209q-66 -94 -174.5 -151.5t-220.5 -57.5q-154 0 -252 85.5t-98 219.5q0 67 25 122.5t65 91t91 60.5t100.5 35.5t95.5 10.5q64 0 140.5 -22.5
t141.5 -59.5v135q0 96 -62.5 140.5t-160.5 44.5q-171 0 -241 -119l-185 53q127 227 447 227q237 0 346 -149q65 72 153 110.5t189 38.5q214 0 351.5 -155t141.5 -404zM938 575h580q-20 114 -99.5 183t-191.5 69q-107 0 -186.5 -69t-102.5 -183zM745 250v96q-121 94 -249 94
q-86 0 -141.5 -46t-55.5 -118q0 -64 50.5 -106.5t125.5 -42.5q72 0 145 33t125 90z" />
    <glyph glyph-name="ccedilla" unicode="&#xe7;" horiz-adv-x="1067" 
d="M451 -186l26 166q-100 16 -179 66.5t-127.5 122.5t-73.5 154.5t-25 168.5q0 103 37.5 196t101 160.5t151.5 107t185 39.5q161 0 272 -94v66h172v-365h-172q-15 102 -84 162q-66 57 -172 57q-129 0 -208 -90.5t-79 -236.5q0 -155 82 -252t213 -97q97 0 172.5 49.5
t118.5 141.5l158 -74q-63 -141 -178 -215t-271 -76l-6 -47q56 -14 86.5 -55t30.5 -102q0 -79 -56 -130t-169 -51h-72v103q76 -2 110.5 12.5t34.5 54.5q0 55 -79 58z" />
    <glyph glyph-name="egrave" unicode="&#xe8;" horiz-adv-x="1173" 
d="M1098 436h-813q22 -141 109 -219t222 -78q95 0 178 41t136 117l168 -74q-78 -121 -204 -186.5t-282 -65.5q-235 0 -386.5 144t-151.5 368q0 150 75 269.5t190 181t243 61.5q101 0 193.5 -38t164.5 -108t115 -177t43 -236zM291 575h612q-23 116 -113 191.5t-204 75.5
t-193.5 -72.5t-101.5 -194.5zM774 1096h-129l-289 317h277z" />
    <glyph glyph-name="eacute" unicode="&#xe9;" horiz-adv-x="1173" 
d="M1098 436h-813q22 -141 109 -219t222 -78q95 0 178 41t136 117l168 -74q-78 -121 -204 -186.5t-282 -65.5q-235 0 -386.5 144t-151.5 368q0 150 75 269.5t190 181t243 61.5q101 0 193.5 -38t164.5 -108t115 -177t43 -236zM291 575h612q-23 116 -113 191.5t-204 75.5
t-193.5 -72.5t-101.5 -194.5zM401 1096l142 317h276l-289 -317h-129z" />
    <glyph glyph-name="ecircumflex" unicode="&#xea;" horiz-adv-x="1173" 
d="M1098 436h-813q22 -141 109 -219t222 -78q95 0 178 41t136 117l168 -74q-78 -121 -204 -186.5t-282 -65.5q-235 0 -386.5 144t-151.5 368q0 150 75 269.5t190 181t243 61.5q101 0 193.5 -38t164.5 -108t115 -177t43 -236zM291 575h612q-23 116 -113 191.5t-204 75.5
t-193.5 -72.5t-101.5 -194.5zM584 1274l-166 -176h-135l168 313h266l174 -313h-141z" />
    <glyph glyph-name="edieresis" unicode="&#xeb;" horiz-adv-x="1173" 
d="M1098 436h-813q22 -141 109 -219t222 -78q95 0 178 41t136 117l168 -74q-78 -121 -204 -186.5t-282 -65.5q-235 0 -386.5 144t-151.5 368q0 150 75 269.5t190 181t243 61.5q101 0 193.5 -38t164.5 -108t115 -177t43 -236zM291 575h612q-23 116 -113 191.5t-204 75.5
t-193.5 -72.5t-101.5 -194.5zM768 1370q47 0 81 -34t34 -81t-34 -80.5t-81 -33.5t-81 33.5t-34 80.5t34 81t81 34zM406 1370q47 0 80.5 -34t33.5 -81t-33.5 -80.5t-80.5 -33.5t-81 33.5t-34 80.5t34 81t81 34z" />
    <glyph glyph-name="igrave" unicode="&#xec;" 
d="M203 168v631h-154v168h346v-799h154v-168h-500v168h154zM403 1096h-129l-288 317h276z" />
    <glyph glyph-name="iacute" unicode="&#xed;" 
d="M203 168v631h-154v168h346v-799h154v-168h-500v168h154zM115 1096l141 317h276l-288 -317h-129z" />
    <glyph glyph-name="icircumflex" unicode="&#xee;" 
d="M203 168v631h-154v168h346v-799h154v-168h-500v168h154zM297 1274l-166 -176h-135l168 313h266l174 -313h-141z" />
    <glyph glyph-name="idieresis" unicode="&#xef;" 
d="M203 168v631h-154v168h346v-799h154v-168h-500v168h154zM481 1370q47 0 81 -34t34 -81t-34 -80.5t-81 -33.5t-80.5 33.5t-33.5 80.5t33.5 81t80.5 34zM119 1370q47 0 80.5 -34t33.5 -81t-33.5 -80.5t-80.5 -33.5t-81 33.5t-34 80.5t34 81t81 34z" />
    <glyph glyph-name="eth" unicode="&#xf0;" horiz-adv-x="1173" 
d="M283 483q0 -141 87 -234t216 -93q131 0 218 93t87 234q0 140 -87.5 234t-217.5 94q-121 0 -212 -90t-91 -238zM1053 1325l-265 -98q153 -143 230.5 -330t77.5 -354q0 -270 -142.5 -421t-371.5 -151q-118 0 -216 45t-159.5 119t-95 164t-33.5 184q0 109 41 206t108 163
t152 104.5t172 38.5q157 0 266 -96l4 4q-55 125 -215 256l-270 -102l-109 84l267 100q-99 68 -195 96l195 74q102 -40 186 -98l262 98z" />
    <glyph glyph-name="ntilde" unicode="&#xf1;" horiz-adv-x="1173" 
d="M418 967v-117q96 70 174.5 101.5t155.5 31.5q110 0 181.5 -69.5t71.5 -204.5v-541h166v-168h-358v633q0 92 -27 134t-86 42q-123 0 -278 -123v-518h166v-168h-525v168h166v631h-170v168h363zM807 1391h111q0 -128 -47.5 -202.5t-135.5 -74.5q-42 0 -89.5 19.5t-82.5 43
t-73 43t-62 19.5q-33 0 -45 -27t-12 -84h-115q0 136 51.5 202.5t130.5 66.5q37 0 83 -19t81.5 -42.5t73 -42.5t59.5 -19q69 0 72 117z" />
    <glyph glyph-name="ograve" unicode="&#xf2;" horiz-adv-x="1173" 
d="M78 483q0 220 145 366t365 146q218 0 363 -146t145 -366t-146 -366t-364 -146t-363 146t-145 366zM283 483q0 -141 87 -234t216 -93q131 0 218 93t87 234q0 140 -87.5 234t-217.5 94q-129 0 -216 -94t-87 -234zM774 1096h-129l-289 317h277z" />
    <glyph glyph-name="oacute" unicode="&#xf3;" horiz-adv-x="1173" 
d="M78 483q0 220 145 366t365 146q218 0 363 -146t145 -366t-146 -366t-364 -146t-363 146t-145 366zM283 483q0 -141 87 -234t216 -93q131 0 218 93t87 234q0 140 -87.5 234t-217.5 94q-129 0 -216 -94t-87 -234zM401 1096l142 317h276l-289 -317h-129z" />
    <glyph glyph-name="ocircumflex" unicode="&#xf4;" horiz-adv-x="1173" 
d="M78 483q0 220 145 366t365 146q218 0 363 -146t145 -366t-146 -366t-364 -146t-363 146t-145 366zM283 483q0 -141 87 -234t216 -93q131 0 218 93t87 234q0 140 -87.5 234t-217.5 94q-129 0 -216 -94t-87 -234zM584 1274l-166 -176h-135l168 313h266l174 -313h-141z" />
    <glyph glyph-name="otilde" unicode="&#xf5;" horiz-adv-x="1173" 
d="M78 483q0 220 145 366t365 146q218 0 363 -146t145 -366t-146 -366t-364 -146t-363 146t-145 366zM283 483q0 -141 87 -234t216 -93q131 0 218 93t87 234q0 140 -87.5 234t-217.5 94q-129 0 -216 -94t-87 -234zM807 1391h111q0 -128 -47.5 -202.5t-135.5 -74.5
q-42 0 -89.5 19.5t-82.5 43t-73 43t-62 19.5q-33 0 -45 -27t-12 -84h-115q0 136 51.5 202.5t130.5 66.5q37 0 83 -19t81.5 -42.5t73 -42.5t59.5 -19q69 0 72 117z" />
    <glyph glyph-name="odieresis" unicode="&#xf6;" horiz-adv-x="1173" 
d="M78 483q0 220 145 366t365 146q218 0 363 -146t145 -366t-146 -366t-364 -146t-363 146t-145 366zM283 483q0 -141 87 -234t216 -93q131 0 218 93t87 234q0 140 -87.5 234t-217.5 94q-129 0 -216 -94t-87 -234zM768 1370q47 0 81 -34t34 -81t-34 -80.5t-81 -33.5
t-81 33.5t-34 80.5t34 81t81 34zM406 1370q47 0 80.5 -34t33.5 -81t-33.5 -80.5t-80.5 -33.5t-81 33.5t-34 80.5t34 81t81 34z" />
    <glyph glyph-name="divide" unicode="&#xf7;" horiz-adv-x="1368" 
d="M135 748h1094v-158h-1094v158zM682 352q41 0 69.5 -28.5t28.5 -69.5t-28.5 -69.5t-69.5 -28.5t-69.5 28.5t-28.5 69.5t28.5 69.5t69.5 28.5zM682 1182q41 0 69.5 -29t28.5 -70t-28.5 -69.5t-69.5 -28.5t-69.5 28.5t-28.5 69.5t28.5 70t69.5 29z" />
    <glyph glyph-name="oslash" unicode="&#xf8;" horiz-adv-x="1173" 
d="M123 6l96 115q-141 144 -141 364q0 218 145.5 364t362.5 146q170 0 301 -92l96 113l68 -58l-97 -112q142 -148 142 -363q0 -218 -145.5 -365t-362.5 -147q-166 0 -299 92l-96 -114zM348 270l414 486q-82 55 -174 55q-130 0 -217.5 -94t-87.5 -232q0 -123 65 -215z
M825 694l-411 -483q82 -55 174 -55q129 0 216 94t87 233q0 124 -66 211z" />
    <glyph glyph-name="ugrave" unicode="&#xf9;" horiz-adv-x="1153" 
d="M1133 168v-168h-359v111q-165 -127 -315 -127q-269 0 -269 299v516h-137v168h330v-674q0 -141 115 -141q61 0 137 33t139 89v525h-166v168h359v-799h166zM702 1096h-129l-288 317h276z" />
    <glyph glyph-name="uacute" unicode="&#xfa;" horiz-adv-x="1153" 
d="M1133 168v-168h-359v111q-165 -127 -315 -127q-269 0 -269 299v516h-137v168h330v-674q0 -141 115 -141q61 0 137 33t139 89v525h-166v168h359v-799h166zM391 1096l141 317h277l-289 -317h-129z" />
    <glyph glyph-name="ucircumflex" unicode="&#xfb;" horiz-adv-x="1153" 
d="M1133 168v-168h-359v111q-165 -127 -315 -127q-269 0 -269 299v516h-137v168h330v-674q0 -141 115 -141q61 0 137 33t139 89v525h-166v168h359v-799h166zM573 1274l-165 -176h-136l168 313h267l174 -313h-142z" />
    <glyph glyph-name="udieresis" unicode="&#xfc;" horiz-adv-x="1153" 
d="M1133 168v-168h-359v111q-165 -127 -315 -127q-269 0 -269 299v516h-137v168h330v-674q0 -141 115 -141q61 0 137 33t139 89v525h-166v168h359v-799h166zM758 1370q47 0 80.5 -34t33.5 -81t-33.5 -80.5t-80.5 -33.5t-81 33.5t-34 80.5t34 81t81 34zM395 1370q47 0 81 -34
t34 -81t-34 -80.5t-81 -33.5t-80.5 33.5t-33.5 80.5t33.5 81t80.5 34z" />
    <glyph glyph-name="yacute" unicode="&#xfd;" horiz-adv-x="1153" 
d="M496 18l-318 781h-162v168h480v-168h-115l209 -535l205 535h-129v168h469v-168h-144l-479 -1233h-324v168h191zM391 1096l141 317h277l-289 -317h-129z" />
    <glyph glyph-name="thorn" unicode="&#xfe;" horiz-adv-x="1280" 
d="M190 -266v1489h-161v168h354v-576h4q130 168 336 168q207 0 340 -142t133 -364q0 -215 -137 -360.5t-338 -145.5q-92 0 -180.5 38.5t-157.5 109.5v-385h186v-168h-555v168h176zM379 471q0 -141 86 -233.5t219 -92.5q140 0 226.5 94.5t86.5 247.5q0 141 -86.5 234.5
t-216.5 93.5q-135 0 -225 -98t-90 -246z" />
    <glyph glyph-name="ydieresis" unicode="&#xff;" horiz-adv-x="1153" 
d="M496 18l-318 781h-162v168h480v-168h-115l209 -535l205 535h-129v168h469v-168h-144l-479 -1233h-324v168h191zM758 1370q47 0 80.5 -34t33.5 -81t-33.5 -80.5t-80.5 -33.5t-81 33.5t-34 80.5t34 81t81 34zM395 1370q47 0 81 -34t34 -81t-34 -80.5t-81 -33.5t-80.5 33.5
t-33.5 80.5t33.5 81t80.5 34z" />
    <glyph glyph-name="dotlessi" unicode="&#x131;" 
d="M203 168v631h-154v168h346v-799h154v-168h-500v168h154z" />
    <glyph glyph-name="Lslash" unicode="&#x141;" horiz-adv-x="1067" 
d="M213 174v369l-184 -162v180l184 164v492h-184v174h569v-174h-176v-347l250 213v-180l-250 -213v-516h434v473h193v-647h-1020v174h184z" />
    <glyph glyph-name="lslash" unicode="&#x142;" 
d="M225 168v377l-207 -166v166l207 164v514h-172v168h365v-547l198 166v-166l-198 -166v-510h149v-168h-518v168h176z" />
    <glyph glyph-name="OE" unicode="&#x152;" horiz-adv-x="2091" 
d="M1255 1217v-408h517v-174h-517v-461h596v252h172v-426h-1230q-163 0 -299.5 57.5t-225 154t-137.5 220.5t-49 260q0 52 8.5 108t31 126t57.5 133.5t93.5 125t133 106.5t182 72.5t235.5 27.5h1200v-418h-172v244h-596zM1047 1217h-224q-137 0 -241 -41t-165.5 -113.5
t-91.5 -164.5t-30 -202q0 -80 15 -151.5t54 -141t98.5 -119t156 -80t219.5 -30.5h209v1043z" />
    <glyph glyph-name="oe" unicode="&#x153;" horiz-adv-x="1941" 
d="M1862 436h-801q9 -129 97.5 -213t217.5 -84q187 0 318 158l168 -72q-69 -122 -203.5 -188t-280.5 -66q-262 0 -415 197q-144 -197 -383 -197q-217 0 -362.5 147t-145.5 365q0 98 31 183t81.5 144.5t116 102t134.5 62.5t136 20q234 0 392 -196q69 95 168.5 145.5
t218.5 50.5q101 0 194 -39.5t163.5 -110.5t112.5 -177.5t42 -231.5zM1067 575h580q-22 113 -104.5 182.5t-196.5 69.5q-109 0 -182.5 -66.5t-96.5 -185.5zM276 479q0 -139 86.5 -231t215.5 -92t211.5 93t82.5 236q0 135 -86 226.5t-213 91.5t-212 -93t-85 -231z" />
    <glyph glyph-name="Scaron" unicode="&#x160;" horiz-adv-x="1087" 
d="M70 0v504h172v-123q134 -229 323 -229q106 0 176 66.5t70 166.5q0 64 -33.5 108.5t-87 66.5t-125 43t-141 38.5t-143 53t-123.5 85.5q-92 92 -92 252q0 93 33.5 167.5t91 120t129 69.5t151.5 24q170 0 311 -108v92h172v-420h-172v96q-57 83 -128.5 122.5t-166.5 39.5
q-105 0 -169 -49t-64 -129q0 -72 47 -119q36 -36 118 -63t164 -43t174.5 -53.5t147.5 -92.5q56 -56 87.5 -135t31.5 -164q0 -177 -125.5 -293.5t-314.5 -116.5q-192 0 -342 138v-115h-172zM549 1659l164 176h135l-168 -313h-266l-174 313h141z" />
    <glyph glyph-name="scaron" unicode="&#x161;" horiz-adv-x="937" 
d="M84 0v332h170v-33q12 -72 74 -114t157 -42q91 0 145 33t54 88q0 50 -36 76.5t-96.5 37t-127 20t-140.5 38t-124 78.5q-76 76 -76 184q0 124 96 204.5t244 80.5q136 0 235 -55v39h168v-320h-168v60q-79 118 -225 118q-77 0 -123.5 -32t-46.5 -86q0 -45 39 -70t103 -35
t133 -19.5t141.5 -34.5t116.5 -69q82 -82 82 -200q0 -132 -102.5 -213.5t-268.5 -81.5q-151 0 -254 69v-53h-170zM475 1235l164 176h135l-168 -313h-266l-174 313h141z" />
    <glyph glyph-name="Ydieresis" unicode="&#x178;" horiz-adv-x="1323" 
d="M563 174v459l-413 584h-170v174h571v-174h-174l305 -429l281 429h-175v174h555v-174h-184l-387 -584v-459h191v-174h-586v174h186zM844 1794q47 0 80.5 -34t33.5 -81t-33.5 -80.5t-80.5 -33.5t-81 33.5t-34 80.5t34 81t81 34zM481 1794q47 0 81 -34t34 -81t-34 -80.5
t-81 -33.5t-80.5 33.5t-33.5 80.5t33.5 81t80.5 34z" />
    <glyph glyph-name="Zcaron" unicode="&#x17d;" horiz-adv-x="1153" 
d="M51 0v174l746 1043h-541v-244h-172v418h979v-154l-760 -1063h610v268h172v-442h-1034zM582 1659l163 176h136l-168 -313h-267l-174 313h142z" />
    <glyph glyph-name="zcaron" unicode="&#x17e;" horiz-adv-x="917" 
d="M33 0v158l602 653h-393v-186h-162v342h786v-168l-610 -641h440v198h170v-356h-833zM465 1235l164 176h135l-168 -313h-266l-174 313h141z" />
    <glyph glyph-name="florin" unicode="&#x192;" horiz-adv-x="1130" 
d="M47 -410l35 156q96 -22 151 -22q63 0 87.5 32t37.5 109l181 1057h-201l22 139h203l23 133q26 155 87.5 226t196.5 71q99 0 215 -39l-34 -152q-112 23 -156 23q-60 0 -86 -32t-43 -128l-18 -102h202l-24 -139h-205l-191 -1096q-25 -140 -85 -200t-175 -60q-97 0 -223 24z
" />
    <glyph glyph-name="circumflex" unicode="&#x2c6;" horiz-adv-x="681" 
d="M338 1274l-166 -176h-135l168 313h266l174 -313h-141z" />
    <glyph glyph-name="caron" unicode="&#x2c7;" horiz-adv-x="681" 
d="M346 1235l164 176h135l-168 -313h-266l-174 313h141z" />
    <glyph glyph-name="uni02C9" unicode="&#x2c9;" horiz-adv-x="681" 
d="M49 1192v108h584v-108h-584z" />
    <glyph glyph-name="breve" unicode="&#x2d8;" horiz-adv-x="681" 
d="M33 1397h143q12 -72 55 -109q40 -37 111 -37q68 0 111 38t53 108h143q-12 -129 -96 -207t-211 -78q-129 0 -213 77.5t-96 207.5z" />
    <glyph glyph-name="dotaccent" unicode="&#x2d9;" horiz-adv-x="681" 
d="M342 1370q47 0 81 -34t34 -81t-34 -80.5t-81 -33.5t-81 33.5t-34 80.5t34 81t81 34z" />
    <glyph glyph-name="ring" unicode="&#x2da;" horiz-adv-x="681" 
d="M541 1255q0 -83 -59 -141.5t-142 -58.5t-141 58.5t-58 141.5t58 141t141 58t142 -58t59 -141zM461 1255q0 51 -35 86t-86 35t-86 -35t-35 -86t35 -85.5t86 -34.5t86 34.5t35 85.5z" />
    <glyph glyph-name="ogonek" unicode="&#x2db;" horiz-adv-x="681" 
d="M215 0h160q-41 -75 -41 -145q0 -131 110 -131q40 0 84 20v-133q-95 -45 -168 -45q-92 0 -148 58t-56 153q0 92 59 223z" />
    <glyph glyph-name="tilde" unicode="&#x2dc;" horiz-adv-x="681" 
d="M561 1391h111q0 -128 -47.5 -202.5t-135.5 -74.5q-42 0 -89.5 19.5t-82.5 43t-73 43t-62 19.5q-33 0 -45 -27t-12 -84h-115q0 136 52 202.5t131 66.5q37 0 83 -19t81.5 -42.5t72.5 -42.5t59 -19q69 0 72 117z" />
    <glyph glyph-name="hungarumlaut" unicode="&#x2dd;" horiz-adv-x="681" 
d="M303 1096l141 317h277l-289 -317h-129zM-39 1096l141 317h277l-289 -317h-129z" />
    <glyph glyph-name="uni03A9" unicode="&#x3a9;" horiz-adv-x="1429" 
d="M383 143v7q-114 101 -189 255.5t-75 344.5q0 187 78 337t215.5 234t308.5 84q133 0 245 -54.5t185.5 -145t114.5 -206.5t41 -241q0 -196 -77.5 -354.5t-189.5 -253.5v-7h295v-143h-491v104q122 81 204 240.5t82 380.5q0 98 -27 192t-76.5 171t-130 124.5t-177.5 47.5
q-126 0 -223 -72t-148 -194.5t-51 -274.5q0 -208 84.5 -374t202.5 -241v-104h-492v143h291z" />
    <glyph glyph-name="uni03BC" unicode="&#x3bc;" horiz-adv-x="1130" 
d="M993 967v-967h-159v125h-5q-54 -81 -113 -114.5t-149 -33.5q-85 0 -139.5 28.5t-110.5 100.5h-4v-540h-178v1401h178v-484q0 -168 62.5 -257t181.5 -89q108 0 183 80t75 232v518h178z" />
    <glyph glyph-name="pi" unicode="&#x3c0;" horiz-adv-x="1150" 
d="M1100 883h-156v-590q0 -179 29 -293h-170q-33 58 -33 281v602h-340q-10 -208 -50.5 -478.5t-90.5 -404.5h-172q53 156 93 418.5t46 464.5q-151 0 -215 -25l-25 117q85 57 295 57h805z" />
    <glyph glyph-name="endash" unicode="&#x2013;" horiz-adv-x="1024" 
d="M-12 598h1048v-174h-1048v174z" />
    <glyph glyph-name="emdash" unicode="&#x2014;" horiz-adv-x="2048" 
d="M-12 598h2072v-174h-2072v174z" />
    <glyph glyph-name="quoteleft" unicode="&#x2018;" 
d="M422 1114v-246h-246v246q0 138 57 207t189 70v-103q-67 -15 -95 -53t-28 -121h123z" />
    <glyph glyph-name="quoteright" unicode="&#x2019;" 
d="M176 1145v246h246v-246q0 -138 -57 -207t-189 -70v103q67 15 95 53t28 121h-123z" />
    <glyph glyph-name="quotesinglbase" unicode="&#x201a;" 
d="M176 0v246h246v-246q0 -138 -57 -206.5t-189 -69.5v102q67 15 95 53t28 121h-123z" />
    <glyph glyph-name="quotedblleft" unicode="&#x201c;" horiz-adv-x="1067" 
d="M905 1114v-246h-246v246q0 138 57 207t189 70v-103q-67 -15 -95 -53t-28 -121h123zM410 1114v-246h-246v246q0 138 57 207t189 70v-103q-67 -15 -95 -53t-28 -121h123z" />
    <glyph glyph-name="quotedblright" unicode="&#x201d;" horiz-adv-x="1067" 
d="M657 1145v246h246v-246q0 -138 -57 -207t-189 -70v103q67 15 95 53t28 121h-123zM162 1145v246h246v-246q0 -138 -57 -207t-189 -70v103q67 15 95 53t28 121h-123z" />
    <glyph glyph-name="quotedblbase" unicode="&#x201e;" horiz-adv-x="1067" 
d="M657 0v246h246v-246q0 -138 -57 -206.5t-189 -69.5v102q67 15 95 53t28 121h-123zM162 0v246h246v-246q0 -138 -57 -206.5t-189 -69.5v102q67 15 95 53t28 121h-123z" />
    <glyph glyph-name="dagger" unicode="&#x2020;" horiz-adv-x="1067" 
d="M571 834q0 -149 66 -281v-246l-66 -751h-75l-66 753v244q30 55 49 125q17 57 17 156q-74 0 -147.5 -18.5t-106.5 -41.5h-195v193h195q16 -10 31 -16.5t21.5 -9t23.5 -7t22 -6.5q72 -21 156 -21q0 98 -15.5 158t-50.5 117v231h207v-231q-34 -51 -51 -113q-15 -64 -15 -162
q72 0 147 18.5t107 41.5h195v-193h-195q-48 30 -100 43q-70 17 -154 17z" />
    <glyph glyph-name="daggerdbl" unicode="&#x2021;" horiz-adv-x="1067" 
d="M662 494q-34 -63 -62.5 -181.5t-28.5 -191.5q138 -3 228 53h186v-186h-186q-46 28 -92 39q-49 11 -136 20q11 -155 66 -242v-231h-207v231q13 23 43 99q23 58 23 143q-161 -12 -228 -59h-186v186h186q60 -32 109 -43q49 -10 119 -10q-20 224 -90 373q70 149 90 372
q-145 0 -228 -53h-186v186h186q43 -29 103 -41q40 -10 125 -18q-7 91 -21.5 142t-44.5 100v231h207v-231q-28 -44 -45 -101q-15 -59 -21 -141q91 9 138.5 21t89.5 38h186v-186h-186q-46 27 -103 41q-71 15 -125 12q0 -73 28.5 -191t62.5 -181z" />
    <glyph glyph-name="bullet" unicode="&#x2022;" horiz-adv-x="724" 
d="M362 946q104 0 178 -73t74 -177t-74 -178t-178 -74t-176.5 73.5t-72.5 178.5q0 104 72.5 177t176.5 73z" />
    <glyph glyph-name="ellipsis" unicode="&#x2026;" horiz-adv-x="2048" 
d="M1583 0v246h246v-246h-246zM901 0v246h246v-246h-246zM219 0v246h246v-246h-246z" />
    <glyph glyph-name="perthousand" unicode="&#x2030;" horiz-adv-x="2217" 
d="M1577 332q0 166 79 264t212 98q132 0 211.5 -98.5t79.5 -263.5q0 -164 -79.5 -262.5t-211.5 -98.5q-133 0 -212 98t-79 263zM1739 332q0 -120 31.5 -178t97.5 -58q129 0 129 236q0 235 -129 235q-66 0 -97.5 -57.5t-31.5 -177.5zM829 332q0 166 79 264t212 98
q132 0 211.5 -98.5t79.5 -263.5q0 -164 -79.5 -262.5t-211.5 -98.5q-133 0 -212 98t-79 263zM991 332q0 -120 31.5 -178t97.5 -58q129 0 129 236q0 235 -129 235q-66 0 -97.5 -57.5t-31.5 -177.5zM61 1049q0 166 79 264t212 98q132 0 211.5 -98.5t79.5 -263.5
q0 -164 -79.5 -262.5t-211.5 -98.5q-133 0 -212 98t-79 263zM223 1049q0 -120 31.5 -178t97.5 -58q129 0 129 236q0 235 -129 235q-66 0 -97.5 -57.5t-31.5 -177.5zM119 0l1104 1391h141l-1096 -1391h-149z" />
    <glyph glyph-name="guilsinglleft" unicode="&#x2039;" 
d="M260 485l293 -485h-195l-303 485l303 486h195z" />
    <glyph glyph-name="guilsinglright" unicode="&#x203a;" 
d="M338 485l-293 486h195l303 -486l-303 -485h-195z" />
    <glyph glyph-name="fraction" unicode="&#x2044;" horiz-adv-x="618" 
d="M-303 0l1104 1391h121l-1102 -1391h-123z" />
    <glyph glyph-name="Euro" unicode="&#x20ac;" horiz-adv-x="1110" 
d="M395 764l-2 -64l2 -65h369v-152h-354q50 -338 303 -338q83 0 145 74q62 71 90 191l182 -80q-36 -166 -145 -256q-109 -97 -287 -97q-435 0 -499 506h-131v152h118v59q0 56 2 70h-120v151h131q59 498 495 498q145 0 217 -96v86h181v-414h-181q-15 124 -73 191
q-57 69 -146 69q-125 0 -196 -80q-69 -85 -90 -254h358v-151h-369z" />
    <glyph glyph-name="afii61289" unicode="&#x2113;" horiz-adv-x="980" 
d="M858 315l78 -73q-134 -256 -383 -256q-83 0 -147 28.5t-103 79t-60 112.5t-26 136v25q-15 -11 -53.5 -43t-59.5 -48l-49 99l53 44.5l59 49.5t48 43v530q0 129 26.5 226t72.5 151.5t100.5 80.5t117.5 26q126 0 191 -92.5t65 -237.5q0 -175 -105 -350.5t-302 -366.5l2 -69
q1 -142 59.5 -213.5t147.5 -71.5q83 0 153.5 56t114.5 134zM381 1053v-406q291 319 291 549q0 201 -135 201q-28 0 -54 -17.5t-50 -55.5t-38 -107.5t-14 -163.5z" />
    <glyph glyph-name="trademark" unicode="&#x2122;" horiz-adv-x="2048" 
d="M492 575v695h-265v121h664v-121h-264v-695h-135zM985 575v816h201l203 -652h4l196 652h201v-816h-125v685h-4l-209 -685h-123l-215 685h-4v-685h-125z" />
    <glyph glyph-name="Omega" unicode="&#x2126;" horiz-adv-x="1429" 
d="M383 143v7q-114 101 -189 255.5t-75 344.5q0 187 78 337t215.5 234t308.5 84q133 0 245 -54.5t185.5 -145t114.5 -206.5t41 -241q0 -196 -77.5 -354.5t-189.5 -253.5v-7h295v-143h-491v104q122 81 204 240.5t82 380.5q0 98 -27 192t-76.5 171t-130 124.5t-177.5 47.5
q-126 0 -223 -72t-148 -194.5t-51 -274.5q0 -208 84.5 -374t202.5 -241v-104h-492v143h291z" />
    <glyph glyph-name="estimated" unicode="&#x212e;" horiz-adv-x="1730" 
d="M1661 676h-1290q-11 0 -11 -8v-392q0 -25 17 -45q97 -100 222.5 -156.5t266.5 -56.5q150 0 283 63.5t231 174.5h115q-109 -128 -275.5 -202t-355.5 -74q-216 0 -399.5 95.5t-290 260t-106.5 358.5q0 146 63 279.5t169.5 229.5t254 153t309.5 57t309.5 -57t254.5 -153
t170 -229.5t63 -279.5v-18zM1368 727v391q0 29 -18 47q-97 95 -222 150t-262 55q-139 0 -264.5 -56.5t-222.5 -154.5q-19 -19 -19 -49v-383q0 -5 3.5 -9.5t7.5 -4.5h989q8 0 8 14z" />
    <glyph glyph-name="partialdiff" unicode="&#x2202;" horiz-adv-x="1101" 
d="M203 1317l-56 127q138 112 340 112q102 0 193 -47t163.5 -137.5t115 -237t42.5 -329.5q0 -237 -59 -420t-180 -291t-289 -108q-77 0 -142.5 26.5t-110.5 71.5t-76.5 104.5t-46.5 124.5t-15 133q0 113 34.5 210t93 161.5t135.5 100.5t161 36q63 0 120.5 -20t97 -50.5
t64.5 -58.5t39 -53h2q2 20 2 82q0 242 -104.5 399.5t-259.5 157.5q-144 0 -264 -94zM487 131h2q86 0 156.5 70t111 176t54.5 231q-24 74 -99 140.5t-175 66.5q-117 0 -200 -110t-83 -261q0 -136 64.5 -224.5t168.5 -88.5z" />
    <glyph glyph-name="Delta" unicode="&#x2206;" horiz-adv-x="1296" 
d="M59 0v113l490 1306h205l481 -1304v-115h-1176zM238 141h809l-273 715q-15 48 -64.5 183.5t-62.5 183.5h-6q-10 -42 -57.5 -169.5t-59.5 -164.5z" />
    <glyph glyph-name="product" unicode="&#x220f;" horiz-adv-x="1402" 
d="M1352 1225h-215v-1415h-172v1415h-529v-1415h-172v1415h-213v157h1301v-157z" />
    <glyph glyph-name="summation" unicode="&#x2211;" horiz-adv-x="1103" 
d="M1061 -190h-1016v114l522 670l-499 668v120h962v-149h-723v-6l459 -606l-500 -641v-7h795v-163z" />
    <glyph glyph-name="minus" unicode="&#x2212;" horiz-adv-x="1366" 
d="M135 748h1096v-158h-1096v158z" />
    <glyph glyph-name="uni2215" unicode="&#x2215;" horiz-adv-x="618" 
d="M-303 0l1104 1391h121l-1102 -1391h-123z" />
    <glyph glyph-name="uni2219" unicode="&#x2219;" 
d="M176 549v246h246v-246h-246z" />
    <glyph glyph-name="radical" unicode="&#x221a;" horiz-adv-x="1148" 
d="M1153 1647l-444 -1938h-148l-313 905l-148 -57l-34 105l288 112l244 -713q4 -19 17 -72.5t18 -76.5h2q3 21 14 74.5t15 76.5l362 1584h127z" />
    <glyph glyph-name="infinity" unicode="&#x221e;" horiz-adv-x="1544" 
d="M1444 575v-4q0 -144 -91 -232.5t-216 -88.5q-91 0 -174.5 54.5t-188.5 178.5q-47 -55 -81 -89t-82 -71t-100.5 -55t-111.5 -18q-122 0 -211.5 90.5t-89.5 224.5q0 139 90.5 229.5t227.5 90.5q102 0 186.5 -60t179.5 -172q91 103 136 141q110 92 233 91q129 0 211 -86
t82 -224zM414 354h4q26 0 50 5.5t49.5 21l43 26t44.5 37l37.5 37t40 42.5t34.5 38l-54.5 67t-52.5 56.5t-63.5 54.5t-64.5 30.5t-79 14.5q-89 0 -141.5 -64t-52.5 -157q0 -88 58 -148.5t147 -60.5zM1139 784h-2q-37 0 -73 -13.5t-72 -42.5t-56.5 -49t-56.5 -60l-43 -48
q106 -121 170 -169t137 -48q87 0 139.5 65t52.5 146q0 100 -54.5 159.5t-141.5 59.5z" />
    <glyph glyph-name="integral" unicode="&#x222b;" horiz-adv-x="729" 
d="M694 1669l-26 -121q-34 21 -72 21q-62 0 -100 -49q-36 -42 -51 -125.5t-15 -223.5q0 -154 14.5 -485.5t14.5 -499.5q0 -268 -82 -399q-34 -56 -90 -83.5t-121 -27.5q-39 0 -78 10t-59 23l28 125q48 -24 88 -24q60 0 93 45q65 86 65 331q0 170 -14.5 507.5t-14.5 494.5
q0 168 25 266.5t84 159.5q79 82 199 82q60 0 112 -27z" />
    <glyph glyph-name="approxequal" unicode="&#x2248;" horiz-adv-x="1114" 
d="M956 864l68 -61q-97 -193 -258 -193q-39 0 -78 11.5t-67 25.5t-86 47q-42 24 -62.5 34.5t-55 22t-65.5 11.5q-43 0 -81.5 -23.5t-60.5 -50.5t-54 -74l-70 60q47 89 120 140.5t159 51.5q20 0 39 -2.5t38 -8.5l32.5 -10.5t32 -14.5l27 -14.5t27.5 -16t23 -13.5l33 -18.5
t32.5 -17.5l27 -12.5t31.5 -12t28 -5.5t34 -3q57 0 99.5 36t86.5 111zM956 518l68 -61q-100 -193 -258 -193q-39 0 -78 11.5t-67 25.5t-86 47q-42 24 -62.5 34.5t-55 22t-65.5 11.5q-34 0 -62 -11t-53 -35.5t-41 -45t-40 -56.5l-70 60q47 89 120 140.5t159 51.5
q28 0 54 -4.5t52 -15.5t39.5 -17.5t41 -22.5t32.5 -18l30.5 -17.5l31.5 -18t27.5 -13.5t31.5 -12.5t30 -6.5t35 -3q57 0 99.5 36t86.5 111z" />
    <glyph glyph-name="notequal" unicode="&#x2260;" horiz-adv-x="1114" 
d="M799 1004l-88 -191h303v-108h-346l-129 -285h475v-109h-518l-107 -233l-86 39l88 194h-291v109h336l129 285h-465v108h508l105 229z" />
    <glyph glyph-name="lessequal" unicode="&#x2264;" horiz-adv-x="1114" 
d="M1010 190l-899 447v117l897 446v-129l-783 -373v-4l785 -375v-129zM1014 0h-914v113h914v-113z" />
    <glyph glyph-name="greaterequal" unicode="&#x2265;" horiz-adv-x="1114" 
d="M113 1200l897 -448v-115l-897 -447v129l782 373v6l-782 373v129zM1012 0h-910v113h910v-113z" />
    <glyph glyph-name="lozenge" unicode="&#x25ca;" horiz-adv-x="1148" 
d="M1042 690l-401 -782h-141l-394 782l400 785h141zM885 686l-271 537q-28 66 -39 106h-4q-20 -62 -39 -106l-270 -529l273 -540q28 -69 34 -105h9q13 60 34 103z" />
    </font>
</defs>
</svg>
